<svg width="10" height="10" viewBox="0 0 10 10" fill="none" xmlns="http://www.w3.org/2000/svg">
<path d="M2.71727 0.743635C2.64694 0.761216 2.52036 0.810444 2.43597 0.85088C2.30939 0.914172 2.25313 0.956367 2.11424 1.09526C1.96831 1.24294 1.93491 1.28689 1.86458 1.43106C1.73624 1.7018 1.72921 1.74576 1.72921 2.40329V2.97819H1.51648C1.251 2.97819 1.10156 3.00984 0.885317 3.11357C0.741152 3.18389 0.695442 3.21729 0.549519 3.36322C0.403596 3.50914 0.370192 3.55485 0.299867 3.69902C0.15746 3.99614 0.162735 3.94164 0.168009 5.40438L0.173283 6.69659L0.220752 6.82669C0.303383 7.04997 0.386015 7.17655 0.558309 7.34709C0.829058 7.61608 1.10508 7.72508 1.5112 7.72508H1.72745L1.73273 8.43184L1.738 9.14036L1.79426 9.2564C1.89623 9.46561 2.05446 9.6045 2.26719 9.67658C2.36916 9.71175 2.41487 9.71175 4.70041 9.70823L7.02991 9.70296L7.15297 9.64318C7.31472 9.56407 7.45361 9.42517 7.53272 9.26343L7.5925 9.14036L7.59777 8.43184L7.60305 7.72508H7.8193C8.08125 7.72508 8.24652 7.68816 8.46276 7.58092C8.58407 7.52114 8.64385 7.47543 8.77922 7.3383C8.91636 7.20293 8.96207 7.14315 9.02184 7.02184C9.16952 6.72648 9.16601 6.76164 9.16601 5.34461C9.16601 3.92933 9.16952 3.97504 9.02184 3.68143C8.96207 3.56013 8.9146 3.50035 8.77922 3.36498C8.64385 3.22784 8.58407 3.18213 8.46276 3.12236C8.24652 3.01511 8.08125 2.97819 7.81754 2.97819H7.60129V2.40153C7.60129 1.744 7.59074 1.68071 7.45713 1.41348C7.39735 1.29216 7.34988 1.23239 7.21451 1.09702C7.07913 0.959883 7.01936 0.914172 6.89805 0.854396C6.59214 0.703198 6.71169 0.710231 4.65822 0.711989C2.97571 0.711989 2.83682 0.715506 2.71727 0.743635ZM6.36886 1.25525C6.73103 1.30271 7.00881 1.58049 7.05628 1.94267C7.06507 2.01299 7.07386 2.27671 7.07386 2.5246V2.97819H4.66525H2.25664V2.5246C2.25664 2.27671 2.26543 2.01299 2.27422 1.94267C2.31993 1.58929 2.60299 1.30096 2.94582 1.257C3.10581 1.23591 6.21063 1.23591 6.36886 1.25525ZM7.93357 3.52321C8.29574 3.57067 8.57353 3.84845 8.62099 4.21063C8.64209 4.3794 8.64209 6.32387 8.62099 6.49265C8.59638 6.67374 8.5243 6.82317 8.3942 6.95327C8.2219 7.12381 8.02148 7.19589 7.70326 7.19765H7.60129V6.75812V6.3186H7.72963C7.93006 6.3186 8.02324 6.23421 8.02324 6.05488C8.02324 5.94588 7.98808 5.87907 7.9072 5.82457C7.85798 5.79292 7.76128 5.79116 4.66525 5.79116C1.56922 5.79116 1.47253 5.79292 1.4233 5.82457C1.34243 5.87907 1.30726 5.94588 1.30726 6.05488C1.30726 6.23421 1.40044 6.3186 1.60263 6.3186H1.72921V6.75812V7.19765H1.629C1.30902 7.19589 1.1086 7.12381 0.936302 6.95327C0.806202 6.82317 0.73412 6.67374 0.709507 6.49265C0.688409 6.32387 0.688409 4.3794 0.709507 4.21063C0.755217 3.85725 1.03827 3.56892 1.3811 3.52496C1.54109 3.50387 7.77359 3.50211 7.93357 3.52321ZM7.07034 7.64949L7.06507 8.98213L7.02639 9.04367C7.00529 9.07707 6.96134 9.12102 6.92969 9.14036C6.87168 9.17552 6.84003 9.17552 4.66525 9.17552H2.45882L2.39729 9.13684C2.36389 9.11575 2.31993 9.07179 2.30059 9.04015C2.26719 8.98389 2.26543 8.94697 2.26016 7.64949L2.25488 6.3186H4.66525H7.07562L7.07034 7.64949Z" fill="#F56C89"/>
<path d="M1.42331 4.13668C1.34242 4.19119 1.30725 4.25801 1.30725 4.36703C1.30725 4.47606 1.34242 4.54288 1.42331 4.59739C1.47079 4.62728 1.51475 4.6308 1.99304 4.6308C2.56629 4.6308 2.56981 4.6308 2.64542 4.51474C2.69114 4.44616 2.69114 4.2879 2.64542 4.21932C2.56981 4.10327 2.56629 4.10327 1.99304 4.10327C1.51475 4.10327 1.47079 4.10678 1.42331 4.13668Z" fill="#F56C89"/>
<path d="M3.81442 6.94967C3.73353 7.00418 3.69836 7.071 3.69836 7.18002C3.69836 7.28904 3.73353 7.35586 3.81442 7.41038C3.8619 7.44203 3.91114 7.44379 4.6655 7.44379C5.41987 7.44379 5.46911 7.44203 5.51659 7.41038C5.59748 7.35586 5.63264 7.28904 5.63264 7.18002C5.63264 7.071 5.59748 7.00418 5.51659 6.94967C5.46911 6.91801 5.41987 6.91626 4.6655 6.91626C3.91114 6.91626 3.8619 6.91801 3.81442 6.94967Z" fill="#F56C89"/>
<path d="M3.81442 8.07485C3.73353 8.12936 3.69836 8.19618 3.69836 8.3052C3.69836 8.41423 3.73353 8.48105 3.81442 8.53556C3.8619 8.56721 3.91114 8.56897 4.6655 8.56897C5.41987 8.56897 5.46911 8.56721 5.51659 8.53556C5.59748 8.48105 5.63264 8.41423 5.63264 8.3052C5.63264 8.19618 5.59748 8.12936 5.51659 8.07485C5.46911 8.0432 5.41987 8.04144 4.6655 8.04144C3.91114 8.04144 3.8619 8.0432 3.81442 8.07485Z" fill="#F56C89"/>
</svg>
