<svg width="20" height="17" viewBox="0 0 20 17" fill="none" xmlns="http://www.w3.org/2000/svg">
<path d="M5.25088 0.0763631C4.40718 0.254924 3.64829 0.777215 3.16618 1.50932C2.7912 2.08071 2.63496 2.61639 2.63049 3.3351C2.63049 3.95114 2.70638 4.29933 2.97869 4.8618C3.15278 5.22339 3.2376 5.33945 3.59026 5.68764C4.05005 6.14744 4.34022 6.33493 4.89822 6.53135C5.26873 6.66527 5.33123 6.67419 5.93834 6.67419C6.49634 6.67419 6.63026 6.6608 6.92042 6.57152C7.8534 6.2769 8.58997 5.65193 8.99173 4.80823C9.93364 2.83513 8.75514 0.473661 6.6258 0.0629711C6.20171 -0.0173817 5.65264 -0.0129175 5.25088 0.0763631ZM6.7374 1.65216C7.49628 2.00482 7.96501 2.85745 7.81769 3.64312C7.63913 4.62074 6.82221 5.27249 5.84459 5.21446C5.18392 5.17428 4.56788 4.7502 4.2554 4.11631C4.13933 3.87971 4.13041 3.82168 4.13041 3.34849C4.13041 2.87084 4.13933 2.81728 4.25986 2.57622C4.43842 2.2191 4.7643 1.87537 5.08124 1.70573C5.43837 1.51378 5.62586 1.4736 6.05887 1.49146C6.35349 1.50485 6.48295 1.5361 6.7374 1.65216Z" fill="white"/>
<path d="M13.3442 0.0674324C11.4961 0.437947 10.3086 2.35301 10.7818 4.20559C11.0095 5.08946 11.6836 5.9287 12.5005 6.33939C13.0272 6.60277 13.3531 6.67419 14.0629 6.66973C14.6388 6.66973 14.7504 6.65634 15.0673 6.5492C15.5985 6.3751 15.9556 6.14297 16.4065 5.69211C16.7502 5.35284 16.844 5.22785 17.0181 4.86626C17.2904 4.30379 17.3707 3.9556 17.3707 3.3351C17.3663 2.61639 17.21 2.08071 16.8351 1.50931C16.0806 0.362058 14.7057 -0.204873 13.3442 0.0674324ZM14.795 1.64323C15.2905 1.87536 15.661 2.29052 15.8262 2.80834C15.9422 3.16993 15.9065 3.7815 15.7414 4.1163C15.4423 4.74573 14.8218 5.17428 14.1566 5.21446C13.179 5.27249 12.3621 4.62074 12.1835 3.64312C12.0139 2.73692 12.6746 1.75483 13.6076 1.51824C13.6968 1.49592 13.9379 1.48253 14.1388 1.49146C14.4334 1.50485 14.5629 1.5361 14.795 1.64323Z" fill="white"/>
<path d="M5.29103 7.77237C3.67059 7.96432 2.16621 8.82588 1.1752 10.1338C0.764509 10.674 0.34489 11.5445 0.175257 12.2096C-0.00330393 12.906 -0.0568723 13.9283 0.0681205 14.3523C0.331498 15.2585 1.07253 15.9549 1.93855 16.1112C2.11711 16.1424 3.4831 16.1603 6.00081 16.1603C10.2104 16.1603 10.1033 16.1647 10.6702 15.8656C11.0094 15.6871 11.4201 15.3076 11.5987 15.0086C11.9112 14.4684 12.0094 13.897 11.9246 13.1247C11.6523 10.7588 10.1657 8.86159 7.96945 8.08039C7.17931 7.80362 6.09456 7.67416 5.29103 7.77237ZM6.86237 9.30353C7.70607 9.48209 8.44263 9.87492 9.07653 10.4865C9.89791 11.2811 10.38 12.29 10.4738 13.4149C10.5095 13.8658 10.447 14.1024 10.2327 14.339C9.90237 14.7095 10.1791 14.6871 6.00528 14.6871C3.73755 14.6871 2.23764 14.6693 2.14389 14.6425C1.92962 14.5845 1.67071 14.3613 1.55464 14.1381C1.47429 13.9729 1.46536 13.9015 1.48768 13.4372C1.51447 12.839 1.63053 12.3703 1.87159 11.848C2.53226 10.4419 3.86701 9.45531 5.40263 9.24103C5.76868 9.19193 6.46507 9.22318 6.86237 9.30353Z" fill="white"/>
<path d="M13.3709 7.76791C12.9245 7.82148 12.179 8.0045 12.0005 8.11164C11.5094 8.39734 11.5183 9.12944 12.0138 9.38835C12.1924 9.48209 12.5495 9.4687 12.9468 9.3571C14.0316 9.04462 15.3842 9.25443 16.4154 9.89279C16.8037 10.1338 17.3484 10.6338 17.643 11.0266C17.9287 11.4016 18.2769 12.1114 18.3974 12.5667C18.4554 12.7855 18.5001 13.1203 18.5135 13.4417C18.5403 14.0131 18.4911 14.1783 18.2278 14.4282C17.9555 14.6871 17.9555 14.6871 15.7056 14.6871C13.7905 14.6871 13.6254 14.6961 13.4602 14.772C13.2191 14.8836 13.0807 15.0443 13.0316 15.2675C12.9558 15.6067 13.0941 15.9192 13.3932 16.071C13.5629 16.1558 13.6611 16.1603 15.7235 16.1603C18.1072 16.1603 18.2188 16.1469 18.7188 15.879C19.2724 15.5889 19.683 15.0978 19.8884 14.4952C19.9821 14.2095 20 14.0756 20 13.6247C20 12.0891 19.4286 10.6963 18.3394 9.57138C17.451 8.65625 16.4556 8.10717 15.2324 7.85719C14.7146 7.75452 13.8664 7.71434 13.3709 7.76791Z" fill="white"/>
</svg>
