<svg width="10" height="10" viewBox="0 0 10 10" fill="none" xmlns="http://www.w3.org/2000/svg">
<path d="M2.80027 0.0794506C2.72995 0.0970316 2.60337 0.146259 2.51898 0.186695C2.39239 0.249988 2.33613 0.292182 2.19724 0.431072C2.05132 0.578753 2.01792 0.622706 1.94759 0.766871C1.81925 1.03762 1.81222 1.08157 1.81222 1.73911V2.31401H1.59949C1.33401 2.31401 1.18457 2.34565 0.968325 2.44938C0.82416 2.51971 0.778449 2.55311 0.632526 2.69903C0.486603 2.84496 0.453199 2.89067 0.382875 3.03483C0.240468 3.33195 0.245743 3.27745 0.251017 4.7402L0.256291 6.03241L0.30376 6.16251C0.386391 6.38579 0.469022 6.51237 0.641317 6.68291C0.912066 6.9519 1.18809 7.0609 1.59421 7.0609H1.81046L1.81573 7.76766L1.82101 8.47618L1.87727 8.59221C1.97924 8.80143 2.13747 8.94032 2.3502 9.0124C2.45217 9.04756 2.49788 9.04756 4.78342 9.04405L7.11291 9.03877L7.23598 8.979C7.39773 8.89988 7.53662 8.76099 7.61573 8.59924L7.67551 8.47618L7.68078 7.76766L7.68606 7.0609H7.9023C8.16426 7.0609 8.32952 7.02398 8.54577 6.91673C8.66708 6.85696 8.72686 6.81125 8.86223 6.67412C8.99936 6.53874 9.04507 6.47897 9.10485 6.35766C9.25253 6.06229 9.24902 6.09746 9.24902 4.68042C9.24902 3.26514 9.25253 3.31085 9.10485 3.01725C9.04507 2.89594 8.99761 2.83616 8.86223 2.70079C8.72686 2.56366 8.66708 2.51795 8.54577 2.45817C8.32952 2.35093 8.16426 2.31401 7.90055 2.31401H7.6843V1.73735C7.6843 1.07981 7.67375 1.01652 7.54013 0.74929C7.48036 0.62798 7.43289 0.568205 7.29751 0.432831C7.16214 0.295698 7.10237 0.249988 6.98106 0.190211C6.67514 0.0390139 6.7947 0.0460463 4.74123 0.0478048C3.05872 0.0478048 2.91983 0.051321 2.80027 0.0794506ZM6.45187 0.591061C6.81404 0.638529 7.09182 0.91631 7.13929 1.27848C7.14808 1.3488 7.15687 1.61252 7.15687 1.86041V2.31401H4.74826H2.33965V1.86041C2.33965 1.61252 2.34844 1.3488 2.35723 1.27848C2.40294 0.925101 2.686 0.636771 3.02883 0.592818C3.18882 0.571721 6.29364 0.571721 6.45187 0.591061ZM8.01658 2.85902C8.37875 2.90649 8.65653 3.18427 8.704 3.54644C8.7251 3.71522 8.7251 5.65969 8.704 5.82847C8.67939 6.00955 8.60731 6.15899 8.47721 6.28909C8.30491 6.45963 8.10449 6.53171 7.78627 6.53347H7.6843V6.09394V5.65441H7.81264C8.01307 5.65441 8.10625 5.57002 8.10625 5.3907C8.10625 5.28169 8.07108 5.21489 7.99021 5.16038C7.94098 5.12874 7.84429 5.12698 4.74826 5.12698C1.65223 5.12698 1.55553 5.12874 1.50631 5.16038C1.42543 5.21489 1.39027 5.28169 1.39027 5.3907C1.39027 5.57002 1.48345 5.65441 1.68563 5.65441H1.81222V6.09394V6.53347H1.71201C1.39203 6.53171 1.1916 6.45963 1.01931 6.28909C0.88921 6.15899 0.817128 6.00955 0.792514 5.82847C0.771417 5.65969 0.771417 3.71522 0.792514 3.54644C0.838225 3.19306 1.12128 2.90473 1.46411 2.86078C1.6241 2.83968 7.85659 2.83792 8.01658 2.85902ZM7.15335 6.9853L7.14808 8.31795L7.1094 8.37948C7.0883 8.41288 7.04435 8.45684 7.0127 8.47618C6.95468 8.51134 6.92304 8.51134 4.74826 8.51134H2.54183L2.4803 8.47266C2.44689 8.45156 2.40294 8.40761 2.3836 8.37596C2.3502 8.3197 2.34844 8.28278 2.34317 6.9853L2.33789 5.65441H4.74826H7.15862L7.15335 6.9853Z" fill="#F56C89"/>
<path d="M1.50632 3.47255C1.42543 3.52707 1.39026 3.59389 1.39026 3.70291C1.39026 3.81193 1.42543 3.87875 1.50632 3.93326C1.55379 3.96316 1.59775 3.96667 2.07605 3.96667C2.6493 3.96667 2.65282 3.96667 2.72843 3.85062C2.77415 3.78204 2.77415 3.62378 2.72843 3.5552C2.65282 3.43914 2.6493 3.43914 2.07605 3.43914C1.59775 3.43914 1.55379 3.44266 1.50632 3.47255Z" fill="#F56C89"/>
<path d="M3.89743 6.28542C3.81654 6.33993 3.78137 6.40675 3.78137 6.51578C3.78137 6.6248 3.81654 6.69162 3.89743 6.74613C3.94491 6.77778 3.99414 6.77954 4.74851 6.77954C5.50288 6.77954 5.55212 6.77778 5.59959 6.74613C5.68048 6.69162 5.71565 6.6248 5.71565 6.51578C5.71565 6.40675 5.68048 6.33993 5.59959 6.28542C5.55212 6.25377 5.50288 6.25201 4.74851 6.25201C3.99414 6.25201 3.94491 6.25377 3.89743 6.28542Z" fill="#F56C89"/>
<path d="M3.89743 7.41066C3.81654 7.46518 3.78137 7.532 3.78137 7.64102C3.78137 7.75004 3.81654 7.81686 3.89743 7.87137C3.94491 7.90303 3.99414 7.90479 4.74851 7.90479C5.50288 7.90479 5.55212 7.90303 5.59959 7.87137C5.68048 7.81686 5.71565 7.75004 5.71565 7.64102C5.71565 7.532 5.68048 7.46518 5.59959 7.41066C5.55212 7.37901 5.50288 7.37725 4.74851 7.37725C3.99414 7.37725 3.94491 7.37901 3.89743 7.41066Z" fill="#F56C89"/>
</svg>
