<svg width="10" height="10" viewBox="0 0 10 10" fill="none" xmlns="http://www.w3.org/2000/svg">
<path d="M2.80027 0.751081C2.72995 0.768662 2.60337 0.81789 2.51898 0.858326C2.39239 0.921618 2.33613 0.963813 2.19724 1.1027C2.05132 1.25038 2.01792 1.29434 1.94759 1.4385C1.81925 1.70925 1.81222 1.7532 1.81222 2.41074V2.98564H1.59949C1.33401 2.98564 1.18457 3.01728 0.968325 3.12101C0.82416 3.19134 0.778449 3.22474 0.632526 3.37066C0.486603 3.51659 0.453199 3.5623 0.382875 3.70646C0.240468 4.00358 0.245743 3.94908 0.251017 5.41183L0.256291 6.70404L0.30376 6.83414C0.386391 7.05742 0.469022 7.184 0.641317 7.35454C0.912066 7.62353 1.18809 7.73253 1.59421 7.73253H1.81046L1.81573 8.43929L1.82101 9.14781L1.87727 9.26384C1.97924 9.47306 2.13747 9.61195 2.3502 9.68403C2.45217 9.71919 2.49788 9.71919 4.78342 9.71568L7.11291 9.7104L7.23598 9.65063C7.39773 9.57151 7.53662 9.43262 7.61573 9.27088L7.67551 9.14781L7.68078 8.43929L7.68606 7.73253H7.9023C8.16426 7.73253 8.32952 7.69561 8.54577 7.58837C8.66708 7.52859 8.72686 7.48288 8.86223 7.34575C8.99936 7.21037 9.04507 7.1506 9.10485 7.02929C9.25253 6.73392 9.24902 6.76909 9.24902 5.35205C9.24902 3.93677 9.25253 3.98249 9.10485 3.68888C9.04507 3.56757 8.99761 3.5078 8.86223 3.37242C8.72686 3.23529 8.66708 3.18958 8.54577 3.1298C8.32952 3.02256 8.16426 2.98564 7.90055 2.98564H7.6843V2.40898C7.6843 1.75145 7.67375 1.68815 7.54013 1.42092C7.48036 1.29961 7.43289 1.23984 7.29751 1.10446C7.16214 0.967329 7.10237 0.921618 6.98106 0.861842C6.67514 0.710645 6.7947 0.717677 4.74123 0.719436C3.05872 0.719436 2.91983 0.722952 2.80027 0.751081ZM6.45187 1.26269C6.81404 1.31016 7.09182 1.58794 7.13929 1.95011C7.14808 2.02044 7.15687 2.28415 7.15687 2.53205V2.98564H4.74826H2.33965V2.53205C2.33965 2.28415 2.34844 2.02044 2.35723 1.95011C2.40294 1.59673 2.686 1.3084 3.02883 1.26445C3.18882 1.24335 6.29364 1.24335 6.45187 1.26269ZM8.01658 3.53065C8.37875 3.57812 8.65653 3.8559 8.704 4.21807C8.7251 4.38685 8.7251 6.33132 8.704 6.5001C8.67939 6.68118 8.60731 6.83062 8.47721 6.96072C8.30491 7.13126 8.10449 7.20334 7.78627 7.2051H7.6843V6.76557V6.32604H7.81264C8.01307 6.32604 8.10625 6.24165 8.10625 6.06233C8.10625 5.95332 8.07108 5.88652 7.99021 5.83202C7.94098 5.80037 7.84429 5.79861 4.74826 5.79861C1.65223 5.79861 1.55553 5.80037 1.50631 5.83202C1.42543 5.88652 1.39027 5.95332 1.39027 6.06233C1.39027 6.24165 1.48345 6.32604 1.68563 6.32604H1.81222V6.76557V7.2051H1.71201C1.39203 7.20334 1.1916 7.13126 1.01931 6.96072C0.88921 6.83062 0.817128 6.68118 0.792514 6.5001C0.771417 6.33132 0.771417 4.38685 0.792514 4.21807C0.838225 3.86469 1.12128 3.57636 1.46411 3.53241C1.6241 3.51131 7.85659 3.50955 8.01658 3.53065ZM7.15335 7.65693L7.14808 8.98958L7.1094 9.05111C7.0883 9.08452 7.04435 9.12847 7.0127 9.14781C6.95468 9.18297 6.92304 9.18297 4.74826 9.18297H2.54183L2.4803 9.14429C2.44689 9.12319 2.40294 9.07924 2.3836 9.0476C2.3502 8.99134 2.34844 8.95442 2.34317 7.65693L2.33789 6.32604H4.74826H7.15862L7.15335 7.65693Z" fill="#F56C89"/>
<path d="M1.50632 4.14419C1.42543 4.1987 1.39026 4.26552 1.39026 4.37454C1.39026 4.48356 1.42543 4.55038 1.50632 4.6049C1.55379 4.63479 1.59775 4.63831 2.07605 4.63831C2.6493 4.63831 2.65282 4.63831 2.72843 4.52225C2.77415 4.45367 2.77415 4.29541 2.72843 4.22683C2.65282 4.11077 2.6493 4.11077 2.07605 4.11077C1.59775 4.11077 1.55379 4.11429 1.50632 4.14419Z" fill="#F56C89"/>
<path d="M3.89743 6.95705C3.81654 7.01156 3.78137 7.07838 3.78137 7.18741C3.78137 7.29643 3.81654 7.36325 3.89743 7.41776C3.94491 7.44941 3.99414 7.45117 4.74851 7.45117C5.50288 7.45117 5.55212 7.44941 5.59959 7.41776C5.68048 7.36325 5.71565 7.29643 5.71565 7.18741C5.71565 7.07838 5.68048 7.01156 5.59959 6.95705C5.55212 6.9254 5.50288 6.92364 4.74851 6.92364C3.99414 6.92364 3.94491 6.9254 3.89743 6.95705Z" fill="#F56C89"/>
<path d="M3.89743 8.0823C3.81654 8.13681 3.78137 8.20363 3.78137 8.31265C3.78137 8.42167 3.81654 8.48849 3.89743 8.54301C3.94491 8.57466 3.99414 8.57642 4.74851 8.57642C5.50288 8.57642 5.55212 8.57466 5.59959 8.54301C5.68048 8.48849 5.71565 8.42167 5.71565 8.31265C5.71565 8.20363 5.68048 8.13681 5.59959 8.0823C5.55212 8.05064 5.50288 8.04889 4.74851 8.04889C3.99414 8.04889 3.94491 8.05064 3.89743 8.0823Z" fill="#F56C89"/>
</svg>
