<svg width="10" height="10" viewBox="0 0 10 10" fill="none" xmlns="http://www.w3.org/2000/svg">
<path d="M2.80027 0.415266C2.72995 0.432847 2.60337 0.482075 2.51898 0.522511C2.39239 0.585803 2.33613 0.627997 2.19724 0.766888C2.05132 0.914569 2.01792 0.958522 1.94759 1.10269C1.81925 1.37344 1.81222 1.41739 1.81222 2.07492V2.64982H1.59949C1.33401 2.64982 1.18457 2.68147 0.968325 2.7852C0.82416 2.85552 0.778449 2.88893 0.632526 3.03485C0.486603 3.18077 0.453199 3.22648 0.382875 3.37065C0.240468 3.66777 0.245743 3.61327 0.251017 5.07601L0.256291 6.36822L0.30376 6.49832C0.386391 6.7216 0.469022 6.84819 0.641317 7.01872C0.912066 7.28771 1.18809 7.39671 1.59421 7.39671H1.81046L1.81573 8.10347L1.82101 8.81199L1.87727 8.92803C1.97924 9.13724 2.13747 9.27613 2.3502 9.34822C2.45217 9.38338 2.49788 9.38338 4.78342 9.37986L7.11291 9.37459L7.23598 9.31481C7.39773 9.2357 7.53662 9.09681 7.61573 8.93506L7.67551 8.81199L7.68078 8.10347L7.68606 7.39671H7.9023C8.16426 7.39671 8.32952 7.35979 8.54577 7.25255C8.66708 7.19277 8.72686 7.14706 8.86223 7.00993C8.99936 6.87456 9.04507 6.81478 9.10485 6.69347C9.25253 6.39811 9.24902 6.43327 9.24902 5.01624C9.24902 3.60096 9.25253 3.64667 9.10485 3.35307C9.04507 3.23176 8.99761 3.17198 8.86223 3.03661C8.72686 2.89947 8.66708 2.85376 8.54577 2.79399C8.32952 2.68674 8.16426 2.64982 7.90055 2.64982H7.6843V2.07316C7.6843 1.41563 7.67375 1.35234 7.54013 1.08511C7.48036 0.963796 7.43289 0.90402 7.29751 0.768646C7.16214 0.631514 7.10237 0.585803 6.98106 0.526027C6.67514 0.374829 6.7947 0.381862 4.74123 0.38362C3.05872 0.38362 2.91983 0.387136 2.80027 0.415266ZM6.45187 0.926876C6.81404 0.974344 7.09182 1.25213 7.13929 1.6143C7.14808 1.68462 7.15687 1.94834 7.15687 2.19623V2.64982H4.74826H2.33965V2.19623C2.33965 1.94834 2.34844 1.68462 2.35723 1.6143C2.40294 1.26092 2.686 0.972587 3.02883 0.928634C3.18882 0.907537 6.29364 0.907537 6.45187 0.926876ZM8.01658 3.19484C8.37875 3.2423 8.65653 3.52009 8.704 3.88226C8.7251 4.05103 8.7251 5.9955 8.704 6.16428C8.67939 6.34537 8.60731 6.49481 8.47721 6.62491C8.30491 6.79544 8.10449 6.86752 7.78627 6.86928H7.6843V6.42976V5.99023H7.81264C8.01307 5.99023 8.10625 5.90584 8.10625 5.72651C8.10625 5.61751 8.07108 5.5507 7.99021 5.4962C7.94098 5.46455 7.84429 5.4628 4.74826 5.4628C1.65223 5.4628 1.55553 5.46455 1.50631 5.4962C1.42543 5.5507 1.39027 5.61751 1.39027 5.72651C1.39027 5.90584 1.48345 5.99023 1.68563 5.99023H1.81222V6.42976V6.86928H1.71201C1.39203 6.86752 1.1916 6.79544 1.01931 6.62491C0.88921 6.49481 0.817128 6.34537 0.792514 6.16428C0.771417 5.9955 0.771417 4.05103 0.792514 3.88226C0.838225 3.52888 1.12128 3.24055 1.46411 3.19659C1.6241 3.1755 7.85659 3.17374 8.01658 3.19484ZM7.15335 7.32112L7.14808 8.65376L7.1094 8.7153C7.0883 8.7487 7.04435 8.79265 7.0127 8.81199C6.95468 8.84715 6.92304 8.84715 4.74826 8.84715H2.54183L2.4803 8.80848C2.44689 8.78738 2.40294 8.74343 2.3836 8.71178C2.3502 8.65552 2.34844 8.6186 2.34317 7.32112L2.33789 5.99023H4.74826H7.15862L7.15335 7.32112Z" fill="#F56C89"/>
<path d="M1.50632 3.80837C1.42543 3.86288 1.39026 3.9297 1.39026 4.03872C1.39026 4.14775 1.42543 4.21457 1.50632 4.26908C1.55379 4.29897 1.59775 4.30249 2.07605 4.30249C2.6493 4.30249 2.65282 4.30249 2.72843 4.18643C2.77415 4.11785 2.77415 3.9596 2.72843 3.89102C2.65282 3.77496 2.6493 3.77496 2.07605 3.77496C1.59775 3.77496 1.55379 3.77848 1.50632 3.80837Z" fill="#F56C89"/>
<path d="M3.89743 6.62124C3.81654 6.67575 3.78137 6.74257 3.78137 6.85159C3.78137 6.96061 3.81654 7.02743 3.89743 7.08195C3.94491 7.1136 3.99414 7.11536 4.74851 7.11536C5.50288 7.11536 5.55212 7.1136 5.59959 7.08195C5.68048 7.02743 5.71565 6.96061 5.71565 6.85159C5.71565 6.74257 5.68048 6.67575 5.59959 6.62124C5.55212 6.58958 5.50288 6.58783 4.74851 6.58783C3.99414 6.58783 3.94491 6.58958 3.89743 6.62124Z" fill="#F56C89"/>
<path d="M3.89743 7.74648C3.81654 7.80099 3.78137 7.86781 3.78137 7.97684C3.78137 8.08586 3.81654 8.15268 3.89743 8.20719C3.94491 8.23884 3.99414 8.2406 4.74851 8.2406C5.50288 8.2406 5.55212 8.23884 5.59959 8.20719C5.68048 8.15268 5.71565 8.08586 5.71565 7.97684C5.71565 7.86781 5.68048 7.80099 5.59959 7.74648C5.55212 7.71483 5.50288 7.71307 4.74851 7.71307C3.99414 7.71307 3.94491 7.71483 3.89743 7.74648Z" fill="#F56C89"/>
</svg>
