<svg width="18" height="18" viewBox="0 0 18 18" fill="none" xmlns="http://www.w3.org/2000/svg">
<path d="M7.65475 0.0101433C5.42059 0.249874 3.39619 1.31868 1.97112 3.01677C0.968913 4.20877 0.346278 5.56058 0.0699216 7.14547C0.0066592 7.5084 0 7.68487 0 8.51061C0 9.33635 0.0066592 9.51282 0.0699216 9.87574C0.382904 11.6737 1.13539 13.1621 2.37733 14.4506C3.65257 15.7758 5.26077 16.6149 7.13866 16.9445C7.50159 17.0077 7.67805 17.0144 8.5038 17.0144C9.54596 17.0144 9.85894 16.9811 10.678 16.7713C13.6114 16.0122 16.0054 13.6182 16.7645 10.6848C16.9743 9.86576 17.0076 9.55277 17.0076 8.51061C17.0076 7.68487 17.0009 7.5084 16.9377 7.14547C16.608 5.26758 15.7657 3.65938 14.4438 2.38415C13.1586 1.14554 11.6569 0.386389 9.88891 0.083395C9.56594 0.0267906 9.31622 0.0101433 8.63698 0.00348473C8.17084 -0.00317574 7.728 0.000154495 7.65475 0.0101433ZM9.53597 1.40192C11.1542 1.66162 12.4294 2.3109 13.5648 3.44962C14.557 4.43851 15.2096 5.6072 15.5093 6.9124C15.7423 7.94125 15.7423 9.07997 15.5093 10.1088C15.1064 11.8802 14.001 13.4584 12.4094 14.5305C11.7968 14.9434 10.8678 15.3396 10.102 15.5161C9.07316 15.7492 7.93443 15.7492 6.90559 15.5161C5.13424 15.1132 3.55601 14.0078 2.48388 12.4162C2.07101 11.8036 1.67479 10.8746 1.49832 10.1088C1.26525 9.07997 1.26525 7.94125 1.49832 6.9124C1.79798 5.6072 2.45058 4.43851 3.44281 3.44962C4.69806 2.19103 6.13312 1.52511 7.98771 1.33865C8.25075 1.31202 9.22632 1.35197 9.53597 1.40192Z" fill="white"/>
<path d="M8.2041 4.55508C8.12419 4.59837 8.01099 4.68827 7.95771 4.75819L7.8545 4.88804L7.84451 6.33309L7.83452 7.77813H6.44608C5.06762 7.77813 5.0543 7.77813 4.9078 7.85139C4.82789 7.89467 4.71801 7.98457 4.66141 8.05449C4.57484 8.16104 4.55819 8.21764 4.5482 8.4041C4.53156 8.6971 4.62479 8.88356 4.85786 9.02673L5.01768 9.12662L6.42943 9.13661L7.83785 9.1466V10.5384V11.9301L7.91443 12.0766C8.15749 12.5328 8.85005 12.5328 9.09311 12.0766L9.16969 11.9301V10.5384V9.1466L10.5781 9.13661L11.9899 9.12662L12.1497 9.02673C12.3828 8.88356 12.476 8.6971 12.4593 8.4041C12.4493 8.21764 12.4327 8.16104 12.3461 8.05449C12.2895 7.98457 12.1796 7.89467 12.0997 7.85139C11.9532 7.77813 11.9399 7.77813 10.5615 7.77813H9.17302L9.16303 6.33309L9.15304 4.88804L9.04982 4.75819C8.91997 4.59171 8.70021 4.48183 8.50377 4.48183C8.41054 4.48183 8.294 4.5118 8.2041 4.55508Z" fill="white"/>
</svg>
