<svg width="20" height="24" viewBox="0 0 20 24" fill="none" xmlns="http://www.w3.org/2000/svg">
<path d="M9.03034 0.0280561C8.21153 0.159066 7.50033 0.402371 6.95289 0.729897C6.10601 1.23522 5.33398 2.00257 4.82866 2.83542C4.56664 3.26588 4.33269 3.86478 4.20168 4.4169C4.06599 5.00176 4.03324 6.1715 4.13617 6.76104C4.43563 8.48289 5.46967 9.94272 7.02776 10.8364C8.56245 11.716 10.6071 11.7909 12.2869 11.0329C12.8484 10.7802 13.3771 10.3919 13.9245 9.84914C15.1504 8.62326 15.6885 7.22894 15.6136 5.50709C15.5434 3.97708 15.0241 2.77459 13.9573 1.69376C13.1057 0.828154 12.0436 0.27136 10.8692 0.0654879C10.4995 -1.71661e-05 9.33915 -0.0234118 9.03034 0.0280561ZM11.0329 1.58146C11.7348 1.78734 12.3711 2.17569 12.9279 2.74184C13.4847 3.30799 13.7935 3.82735 14.0228 4.56662C14.1397 4.94562 14.1491 5.0392 14.1491 5.77379C14.1444 6.49902 14.1351 6.60664 14.0228 6.98095C13.8075 7.68747 13.494 8.21151 12.9419 8.78234C12.1184 9.63859 11.0236 10.1018 9.85383 10.1018C8.69346 10.0971 7.73895 9.71813 6.91078 8.93207C6.26509 8.31913 5.87206 7.69683 5.65215 6.93416C5.55857 6.616 5.54453 6.46627 5.54921 5.75039C5.54921 4.99241 5.55857 4.89883 5.68022 4.51048C5.99839 3.47643 6.73298 2.56404 7.72024 1.97917C8.0852 1.76394 8.44079 1.62825 8.94144 1.51596C9.3953 1.41302 10.5837 1.45045 11.0329 1.58146Z" fill="white"/>
<path d="M4.63215 11.5804C3.55131 11.7394 2.7325 12.1418 2.04469 12.8484C0.734593 14.1959 0 16.5868 0 19.5112C0 20.7464 0.0888998 21.1862 0.48193 21.9629C0.626977 22.2483 0.776703 22.4402 1.09955 22.763C1.55809 23.2262 1.95579 23.4883 2.51259 23.6848C3.28461 23.9655 3.02727 23.9561 10.1814 23.9421L16.7272 23.9281L17.1249 23.8064C17.6302 23.6473 17.8969 23.5304 18.2338 23.3151C19.0152 22.8192 19.5907 22.0331 19.8387 21.1441C19.9884 20.5873 20.0305 19.9229 19.9791 18.8982C19.7451 14.3129 18.0045 11.7301 15.0428 11.5663C14.4064 11.5336 14.3971 11.5336 13.3069 12.2354C12.4647 12.7735 11.8798 13.0402 11.1031 13.2414C10.5182 13.3958 9.47016 13.3958 8.88998 13.2461C8.0618 13.0308 7.50501 12.7735 6.6628 12.2261C6.35399 12.0249 5.975 11.7909 5.81124 11.7067C5.53986 11.5663 5.47903 11.5523 5.13279 11.557C4.92224 11.5616 4.69765 11.571 4.63215 11.5804ZM5.87206 13.4566C6.70959 13.9947 7.33189 14.2988 8.05713 14.5187C9.47016 14.9445 10.8083 14.9164 12.2167 14.4252C12.8577 14.2052 13.3162 13.9666 14.1444 13.4332L14.8369 12.9934L15.1223 13.0215C16.8488 13.218 17.8969 14.631 18.3648 17.3776C18.5052 18.1917 18.5894 19.7124 18.5286 20.2598C18.4023 21.3921 17.6957 22.1782 16.5728 22.4402C16.2359 22.5197 15.8288 22.5244 9.96613 22.5244C3.02259 22.5244 3.46241 22.5431 2.76525 22.2109C2.38158 22.0284 1.89965 21.5559 1.72185 21.1909C1.49726 20.723 1.45047 20.4329 1.45047 19.5252C1.45515 17.0594 2.03066 15.0287 3.05067 13.9152C3.4437 13.4847 3.93498 13.2086 4.56196 13.0729C5.09068 12.956 5.10472 12.9606 5.87206 13.4566Z" fill="white"/>
</svg>
