<svg width="20" height="20" viewBox="0 0 20 20" fill="none" xmlns="http://www.w3.org/2000/svg">
<path d="M8.74692 0.0544586C4.83569 0.538965 1.54964 3.30926 0.408701 7.07982C0.0883009 8.1387 -0.0250114 9.02957 0.0062472 10.2877C0.0453204 11.8663 0.342277 13.0854 1.03778 14.4803L1.29176 14.9921L0.639233 17.02C0.0335984 18.8995 -0.0132894 19.0597 0.00233988 19.2824C0.0296911 19.7083 0.287574 19.9662 0.713472 19.9935C0.936189 20.0091 1.09639 19.9623 2.97581 19.3566L5.00371 18.7041L5.51557 18.9581C6.48068 19.4387 7.3481 19.7161 8.47341 19.9075C8.98136 19.9935 10.4388 20.0248 11.0366 19.9623C15.0338 19.5559 18.4214 16.7661 19.5858 12.9134C19.875 11.964 20 11.0848 20 9.99859C20 9.18196 19.9609 8.73261 19.8203 8.02539C19.1638 4.69635 16.8468 1.92997 13.6467 0.660093C12.9356 0.374859 11.8884 0.120882 11.0835 0.0349216C10.5716 -0.0197811 9.25097 -0.00805855 8.74692 0.0544586ZM11.3844 1.69163C13.1739 2.02375 14.6782 2.80521 15.9325 4.06337C17.0031 5.13007 17.7533 6.42339 18.1245 7.82612C18.3472 8.67791 18.3785 8.91626 18.3785 9.99859C18.3785 11.0809 18.3472 11.3193 18.1245 12.1711C17.7533 13.5738 17.0031 14.8671 15.9325 15.9338C14.6782 17.192 13.1661 17.9773 11.3844 18.3055C10.9194 18.3876 9.63388 18.4228 9.10249 18.3642C8.55937 18.3055 8.02016 18.1922 7.5083 18.032C6.93783 17.8484 6.63306 17.7194 5.9063 17.3443C5.29285 17.0239 5.28894 17.0239 5.0545 17.0435C4.90993 17.0591 4.27695 17.2428 3.43297 17.5163C2.67104 17.7624 2.04587 17.9617 2.03805 17.9578C2.03415 17.95 2.23342 17.3248 2.47958 16.5629C2.75309 15.7189 2.93674 15.0859 2.95237 14.9413C2.9719 14.7186 2.96409 14.6913 2.78826 14.3552C2.31938 13.4722 2.167 13.1244 1.96381 12.4875C1.80361 11.9757 1.6903 11.4365 1.63169 10.8934C1.57308 10.362 1.60825 9.07646 1.6903 8.61149C2.01852 6.82975 2.80389 5.31762 4.06205 4.06337C4.7302 3.39131 5.4257 2.88727 6.24624 2.477C7.16446 2.01593 7.92248 1.78931 9.11812 1.62129C9.41507 1.57831 11.0483 1.62911 11.3844 1.69163Z" fill="white"/>
<path d="M5.67966 9.09604C5.32019 9.25624 5.1131 9.58837 5.1131 9.99863C5.1131 10.5769 5.51164 10.9755 6.08993 10.9755C6.66821 10.9755 7.06676 10.5769 7.06676 9.99863C7.06676 9.42035 6.66821 9.0218 6.08993 9.0218C5.92582 9.0218 5.78125 9.04916 5.67966 9.09604Z" fill="white"/>
<path d="M9.58695 9.09604C9.22747 9.25624 9.02039 9.58837 9.02039 9.99863C9.02039 10.5769 9.41893 10.9755 9.99722 10.9755C10.5755 10.9755 10.974 10.5769 10.974 9.99863C10.974 9.42035 10.5755 9.0218 9.99722 9.0218C9.83311 9.0218 9.68854 9.04916 9.58695 9.09604Z" fill="white"/>
<path d="M13.4942 9.09604C13.1348 9.25624 12.9277 9.58837 12.9277 9.99863C12.9277 10.5769 13.3262 10.9755 13.9045 10.9755C14.4828 10.9755 14.8813 10.5769 14.8813 9.99863C14.8813 9.42035 14.4828 9.0218 13.9045 9.0218C13.7404 9.0218 13.5958 9.04916 13.4942 9.09604Z" fill="white"/>
</svg>
