<svg width="20" height="20" viewBox="0 0 20 20" fill="none" xmlns="http://www.w3.org/2000/svg">
<path d="M8.69421 0.0576725C6.66667 0.319418 4.72507 1.22576 3.2132 2.62042C1.43178 4.26511 0.294951 6.50362 0.0410196 8.87103C-0.0136732 9.35936 -0.0136732 10.6329 0.0410196 11.1213C0.502002 15.3795 3.74841 18.9501 7.93632 19.8057C9.23723 20.0674 10.8546 20.0674 12.1047 19.7979C14.476 19.2861 16.5661 17.9422 18.0272 15.9928C19.078 14.5903 19.7265 12.9847 19.9414 11.2463C20.0195 10.6134 20.0195 9.3828 19.9414 8.74602C19.7695 7.34745 19.2851 5.96059 18.5624 4.7847C16.9528 2.16335 14.2729 0.428802 11.2491 0.0537663C10.6436 -0.0204601 9.28802 -0.0165539 8.69421 0.0576725ZM11.4093 1.53438C13.2064 1.8391 14.7573 2.64386 16.0543 3.94086C17.3982 5.28475 18.2108 6.90209 18.4999 8.82415C18.5936 9.43359 18.5936 10.5587 18.4999 11.1681C18.2225 13.0121 17.4529 14.5903 16.1715 15.9499C15.3433 16.8288 13.9955 17.6922 12.8274 18.0946C11.2452 18.6415 9.57711 18.7236 7.97148 18.3329C6.79949 18.0438 5.60016 17.4578 4.65475 16.6999C3.18976 15.5318 2.10763 13.8403 1.66227 12.0237C1.33802 10.6954 1.33802 9.29686 1.66227 7.9686C2.03731 6.44111 2.80691 5.07769 3.94374 3.94086C5.42436 2.46025 7.24094 1.62423 9.41303 1.42499C9.84276 1.38593 10.8624 1.44062 11.4093 1.53438Z" fill="white"/>
<path d="M9.16692 5.0152C8.77625 5.08943 8.35434 5.25351 8.07306 5.44103C7.04952 6.12078 6.99092 7.40606 7.9793 7.48419C8.29964 7.51154 8.42466 7.44513 8.6278 7.14822C8.94814 6.67943 9.27239 6.50363 9.82323 6.50754C10.1944 6.50754 10.3858 6.55442 10.6319 6.71068C11.0851 6.99587 11.1124 7.59358 10.6983 8.09363C10.6319 8.17567 10.3584 8.41788 10.0928 8.63274C9.22552 9.33203 8.97158 9.82427 8.96768 10.8166C8.96377 11.5588 9.06925 11.7151 9.60837 11.7463C9.96778 11.7659 10.2139 11.7034 10.3506 11.5588C10.4444 11.4572 10.4561 11.4065 10.4952 10.9455C10.5538 10.2149 10.6436 10.0548 11.3429 9.47267C12.2453 8.7226 12.6907 7.94908 12.6946 7.14432C12.6946 6.16375 11.9836 5.3668 10.839 5.0699C10.4209 4.96442 9.59274 4.93707 9.16692 5.0152Z" fill="white"/>
<path d="M9.50283 12.6565C9.27233 12.6995 9.13951 12.7776 8.9559 12.9769C8.76447 13.1839 8.69415 13.3793 8.69415 13.6879C8.69806 13.9652 8.76838 14.145 8.94808 14.352C9.46376 14.938 10.4678 14.7114 10.6865 13.9574C10.9014 13.2074 10.2646 12.5081 9.50283 12.6565Z" fill="white"/>
</svg>
