<svg width="20" height="27" viewBox="0 0 20 27" fill="none" xmlns="http://www.w3.org/2000/svg">
<path d="M4.84608 0.0974236C4.57942 0.220497 4.22559 0.605103 4.15892 0.851252C4.12815 0.964069 4.10251 1.15894 4.10251 1.29227V1.53841H3.24612C2.31794 1.53841 2.03589 1.58457 1.56411 1.82046C1.00515 2.09225 0.553878 2.54865 0.276962 3.13325C-0.0102106 3.72811 4.5583e-05 3.18453 4.5583e-05 13.9791C4.5583e-05 22.9841 0.0103017 23.9584 0.0820949 24.2097C0.369268 25.1635 1.09233 25.8865 2.04615 26.1737C2.29743 26.2455 3.08715 26.2558 9.96391 26.2558C18.4406 26.2558 17.9022 26.2763 18.5586 25.9122C19.2098 25.5481 19.7483 24.8353 19.9226 24.0968C19.9893 23.8097 19.9996 22.5071 19.9996 13.815C19.9996 2.82556 20.0252 3.68708 19.6816 2.99992C19.4765 2.59993 18.9381 2.06148 18.5381 1.85636C17.9894 1.57944 17.7586 1.53841 16.8099 1.53841H15.9484V1.34355C15.9484 0.825611 15.6407 0.312803 15.2048 0.107679C14.974 -1.14441e-05 14.9638 -1.14441e-05 10.0152 -1.14441e-05C5.31787 -1.14441e-05 5.04095 0.00511742 4.84608 0.0974236ZM14.3587 2.30763V3.07684H10.0254H5.69222V2.30763V1.53841H10.0254H14.3587V2.30763ZM4.10251 3.31786C4.10251 3.69734 4.19482 3.93836 4.42558 4.19476C4.84096 4.64603 4.40507 4.61526 9.96904 4.61526C13.6972 4.61526 14.9381 4.59988 15.0971 4.55373C15.4048 4.46142 15.7689 4.08194 15.8663 3.73836C15.9125 3.58965 15.9484 3.3794 15.9484 3.26658V3.06145L16.7073 3.09222C17.5278 3.11786 17.7124 3.16914 18.0201 3.4358C18.1124 3.52298 18.2458 3.70247 18.3073 3.83579L18.4252 4.07681L18.415 13.8458C18.4047 20.979 18.3893 23.6661 18.3483 23.8148C18.2611 24.0968 17.8919 24.4866 17.5996 24.5994C17.3689 24.6866 16.9945 24.6917 9.94853 24.6917H2.53845L2.29743 24.5686C2.02051 24.4353 1.77949 24.184 1.66154 23.9071C1.58462 23.7328 1.57949 22.8148 1.58462 13.9484C1.58975 7.09213 1.61026 4.1281 1.65129 3.99989C1.7077 3.81528 1.90769 3.51273 2.05128 3.39478C2.34358 3.15376 2.63588 3.09222 3.47689 3.08197L4.10251 3.07684V3.31786Z" fill="white"/>
<path d="M7.23063 7.21004C7.12807 7.25106 6.65628 7.68182 6.12809 8.21001L5.19991 9.12794L4.97427 8.89205C4.6871 8.59975 4.523 8.51257 4.25121 8.51257C4.01532 8.51257 3.69738 8.66641 3.58969 8.83564C3.47687 9.02538 3.43585 9.29204 3.49226 9.51255C3.53841 9.67152 3.68199 9.851 4.12301 10.2971C4.43582 10.6202 4.75376 10.9125 4.83069 10.9535C5.01017 11.0458 5.3999 11.0458 5.57939 10.9535C5.74348 10.8612 8.16907 8.43052 8.25112 8.27155C8.33829 8.10232 8.31778 7.73823 8.21522 7.53823C8.11266 7.34337 7.75882 7.12799 7.53831 7.12799C7.46652 7.13312 7.32806 7.16901 7.23063 7.21004Z" fill="white"/>
<path d="M9.72801 8.91767C9.51263 9.11767 9.51263 9.1228 9.51263 9.48689C9.51263 9.85099 9.51263 9.85611 9.72801 10.0561L9.94339 10.2561H12.9587C15.8766 10.2561 15.9791 10.251 16.1432 10.1535C16.6355 9.85099 16.6355 9.1228 16.1432 8.82024C15.9791 8.72281 15.8766 8.71768 12.9587 8.71768H9.94339L9.72801 8.91767Z" fill="white"/>
<path d="M7.23069 12.7227C7.15889 12.7484 6.68198 13.1945 6.16917 13.7022L5.23586 14.6355L4.95895 14.374C4.62562 14.056 4.36409 13.9689 4.04102 14.0509C3.50257 14.1996 3.29232 14.8458 3.63077 15.3176C3.80513 15.5586 4.68203 16.3893 4.85638 16.4816C5.04612 16.5739 5.31278 16.5893 5.52304 16.5124C5.68713 16.4509 8.12297 14.0458 8.23579 13.8355C8.34861 13.6202 8.3281 13.2253 8.18964 13.0202C7.98964 12.7176 7.57427 12.5894 7.23069 12.7227Z" fill="white"/>
<path d="M9.72801 14.0457C9.51263 14.2457 9.51263 14.2508 9.51263 14.6149C9.51263 14.979 9.51263 14.9842 9.72801 15.1842L9.94339 15.3842H12.9587C15.8766 15.3842 15.9791 15.379 16.1432 15.2816C16.6355 14.979 16.6355 14.2508 16.1432 13.9483C15.9791 13.8509 15.8766 13.8457 12.9587 13.8457H9.94339L9.72801 14.0457Z" fill="white"/>
<path d="M7.23069 17.8508C7.15889 17.8764 6.68198 18.3226 6.16917 18.8303L5.23586 19.7636L4.95895 19.502C4.62562 19.1841 4.36409 19.0969 4.04102 19.179C3.50257 19.3277 3.29232 19.9738 3.63077 20.4456C3.80513 20.6866 4.68203 21.5174 4.85638 21.6097C5.04612 21.702 5.31278 21.7174 5.52304 21.6404C5.68713 21.5789 8.12297 19.1738 8.23579 18.9636C8.34861 18.7482 8.3281 18.3533 8.18964 18.1482C7.98964 17.8457 7.57427 17.7175 7.23069 17.8508Z" fill="white"/>
<path d="M9.72801 19.1738C9.51263 19.3738 9.51263 19.379 9.51263 19.7431C9.51263 20.1071 9.51263 20.1123 9.72801 20.3123L9.94339 20.5123H12.9792C15.8868 20.5123 16.0202 20.5071 16.174 20.4148C16.6509 20.1174 16.6509 19.3687 16.174 19.0713C16.0202 18.979 15.8868 18.9738 12.9792 18.9738H9.94339L9.72801 19.1738Z" fill="white"/>
</svg>
