<svg width="20" height="21" viewBox="0 0 20 21" fill="none" xmlns="http://www.w3.org/2000/svg">
<path d="M2.43137 1C1.82745 1.13334 1.36863 1.39216 0.898039 1.85882C0.501961 2.2549 0.286274 2.59608 0.105882 3.11765L0 3.43137V10.9804V18.5294L0.105882 18.8431C0.286274 19.3608 0.501961 19.7059 0.898039 20.102C1.29412 20.498 1.63922 20.7137 2.15686 20.8941L2.47059 21H7.05882H11.6471L11.9608 20.8941C12.4784 20.7137 12.8235 20.498 13.2196 20.102C13.6196 19.702 13.8353 19.3569 14.0078 18.8431C14.1137 18.5333 14.1137 18.5098 14.1294 17.3216C14.1412 16.1451 14.1412 16.1098 14.0588 15.9373C14.0039 15.8275 13.9098 15.7176 13.8118 15.6549C13.6745 15.5647 13.6118 15.549 13.3529 15.549C13.0941 15.549 13.0314 15.5647 12.8941 15.6549C12.8 15.7176 12.702 15.8275 12.651 15.9294C12.5765 16.0902 12.5686 16.1686 12.5686 16.9451C12.5686 17.4078 12.549 17.9059 12.5294 18.0588C12.4275 18.7725 11.8902 19.3098 11.1765 19.4118C10.8078 19.4627 3.3098 19.4627 2.94118 19.4118C2.22745 19.3098 1.6902 18.7725 1.58824 18.0588C1.53725 17.6824 1.53725 4.27843 1.58824 3.90196C1.6902 3.18824 2.22745 2.65098 2.94118 2.54902C3.3098 2.49804 10.8078 2.49804 11.1765 2.54902C11.8902 2.65098 12.4275 3.18824 12.5294 3.90196C12.549 4.05098 12.5686 4.55294 12.5686 5.01569C12.5686 5.79216 12.5765 5.87059 12.651 6.03137C12.702 6.13333 12.8 6.24314 12.8941 6.30588C13.0314 6.39608 13.0941 6.41177 13.3529 6.41177C13.6118 6.41177 13.6745 6.39608 13.8118 6.30588C13.9098 6.24314 14.0039 6.13333 14.0588 6.02353C14.1412 5.85098 14.1412 5.81569 14.1294 4.63922C14.1137 3.45098 14.1137 3.42745 14.0078 3.11765C13.8353 2.60392 13.6196 2.25883 13.2196 1.85882C12.8235 1.46275 12.4784 1.24706 11.9608 1.06667L11.6471 0.960785L7.15686 0.952942C3.5451 0.94902 2.61961 0.956863 2.43137 1Z" fill="#F56C89"/>
<path d="M16.8235 7.71369C16.4392 7.91369 16.2745 8.34898 16.4314 8.73722C16.4706 8.82741 16.7451 9.13329 17.1686 9.55682L17.8431 10.2353H13.0431H8.23922L8.06667 10.3176C7.96471 10.3686 7.85491 10.4666 7.79216 10.5607C7.70197 10.698 7.68628 10.7607 7.68628 11.0196C7.68628 11.2784 7.70197 11.3411 7.79216 11.4784C7.85491 11.5725 7.96471 11.6705 8.06667 11.7215L8.23922 11.8039H13.0431H17.8431L17.1686 12.4784C16.7451 12.9058 16.4706 13.2117 16.4314 13.3019C16.3177 13.5804 16.3804 13.9372 16.5804 14.149C16.8039 14.3921 17.2471 14.4666 17.5412 14.3176C17.6196 14.2745 18.1451 13.7764 18.7098 13.2078C19.6118 12.298 19.749 12.1451 19.8667 11.9019L20 11.6274V11.0196V10.4117L19.8667 10.1372C19.749 9.89408 19.6118 9.74114 18.7098 8.83133C18.1451 8.26271 17.6196 7.76467 17.5412 7.72153C17.3608 7.62741 16.9922 7.62349 16.8235 7.71369Z" fill="#F56C89"/>
</svg>
