<svg width="20" height="24" viewBox="0 0 20 24" fill="none" xmlns="http://www.w3.org/2000/svg">
<path d="M9.03034 0.0279341C8.21153 0.158944 7.50033 0.402249 6.95289 0.729774C6.10601 1.2351 5.33398 2.00244 4.82866 2.8353C4.56664 3.26576 4.33269 3.86466 4.20168 4.41678C4.06599 5.00164 4.03324 6.17138 4.13617 6.76092C4.43563 8.48277 5.46967 9.9426 7.02776 10.8363C8.56245 11.7159 10.6071 11.7908 12.2869 11.0328C12.8484 10.7801 13.3771 10.3918 13.9245 9.84902C15.1504 8.62314 15.6885 7.22882 15.6136 5.50697C15.5434 3.97696 15.0241 2.77447 13.9573 1.69363C13.1057 0.828032 12.0436 0.271238 10.8692 0.0653658C10.4995 -0.000139236 9.33915 -0.0235338 9.03034 0.0279341ZM11.0329 1.58134C11.7348 1.78721 12.3711 2.17557 12.9279 2.74172C13.4847 3.30787 13.7935 3.82723 14.0228 4.5665C14.1397 4.9455 14.1491 5.03907 14.1491 5.77367C14.1444 6.4989 14.1351 6.60652 14.0228 6.98083C13.8075 7.68735 13.494 8.21139 12.9419 8.78222C12.1184 9.63847 11.0236 10.1017 9.85383 10.1017C8.69346 10.097 7.73895 9.71801 6.91078 8.93195C6.26509 8.31901 5.87206 7.69671 5.65215 6.93404C5.55857 6.61587 5.54453 6.46615 5.54921 5.75027C5.54921 4.99228 5.55857 4.89871 5.68022 4.51035C5.99839 3.47631 6.73298 2.56392 7.72024 1.97905C8.0852 1.76382 8.44079 1.62813 8.94144 1.51584C9.3953 1.4129 10.5837 1.45033 11.0329 1.58134Z" fill="white"/>
<path d="M4.63215 11.5803C3.55131 11.7394 2.7325 12.1418 2.04469 12.8483C0.734593 14.1958 0 16.5868 0 19.5111C0 20.7463 0.0888998 21.1862 0.48193 21.9629C0.626977 22.2483 0.776703 22.4401 1.09955 22.763C1.55809 23.2262 1.95579 23.4882 2.51259 23.6847C3.28461 23.9654 3.02727 23.9561 10.1814 23.942L16.7272 23.928L17.1249 23.8064C17.6302 23.6473 17.8969 23.5303 18.2338 23.3151C19.0152 22.8191 19.5907 22.033 19.8387 21.144C19.9884 20.5873 20.0305 19.9228 19.9791 18.8982C19.7451 14.3128 18.0045 11.73 15.0428 11.5663C14.4064 11.5335 14.3971 11.5335 13.3069 12.2354C12.4647 12.7734 11.8798 13.0401 11.1031 13.2413C10.5182 13.3957 9.47016 13.3957 8.88998 13.246C8.0618 13.0308 7.50501 12.7734 6.6628 12.226C6.35399 12.0248 5.975 11.7909 5.81124 11.7066C5.53986 11.5663 5.47903 11.5522 5.13279 11.5569C4.92224 11.5616 4.69765 11.5709 4.63215 11.5803ZM5.87206 13.4566C6.70959 13.9946 7.33189 14.2988 8.05713 14.5187C9.47016 14.9445 10.8083 14.9164 12.2167 14.4251C12.8577 14.2052 13.3162 13.9666 14.1444 13.4332L14.8369 12.9933L15.1223 13.0214C16.8488 13.2179 17.8969 14.631 18.3648 17.3775C18.5052 18.1916 18.5894 19.7123 18.5286 20.2597C18.4023 21.392 17.6957 22.1781 16.5728 22.4401C16.2359 22.5197 15.8288 22.5243 9.96613 22.5243C3.02259 22.5243 3.46241 22.543 2.76525 22.2108C2.38158 22.0284 1.89965 21.5558 1.72185 21.1908C1.49726 20.7229 1.45047 20.4328 1.45047 19.5251C1.45515 17.0593 2.03066 15.0287 3.05067 13.9151C3.4437 13.4846 3.93498 13.2086 4.56196 13.0729C5.09068 12.9559 5.10472 12.9606 5.87206 13.4566Z" fill="white"/>
<path d="M12.1846 17.6806L12.1847 17.6808L12.2147 17.6788L12.2214 17.6783L12.2214 17.6786L15.8715 17.6787L14.637 16.4492C14.5112 16.3239 14.5107 16.1204 14.636 15.9946C14.7499 15.8802 14.9284 15.8695 15.0545 15.9627L15.0604 15.9671L15.0603 15.9673L15.0852 15.9887L15.0907 15.9935L15.0905 15.9937L16.8766 17.7721C16.8931 17.7885 16.9075 17.8063 16.9198 17.8253L16.9213 17.8277L16.9213 17.8277C16.9236 17.8316 16.9269 17.8369 16.9301 17.8426L16.8429 17.8916M12.1846 17.6806L16.8606 17.9318C16.8592 17.9275 16.8577 17.9233 16.8559 17.9189L16.949 17.8823C16.9489 17.8821 16.9488 17.8818 16.9487 17.8815C16.9455 17.8737 16.9423 17.8665 16.9393 17.8601L16.9394 17.8601L16.9386 17.8585C16.936 17.8532 16.9327 17.8468 16.9286 17.84L16.8429 17.8916M12.1846 17.6806L12.1779 17.6815M12.1846 17.6806L12.1779 17.6815M16.8429 17.8916C16.845 17.8951 16.847 17.8988 16.8488 17.9024L14.7075 16.3783C14.6209 16.292 14.6206 16.1518 14.7068 16.0652C14.7853 15.9864 14.9083 15.979 14.9951 16.0431L15.02 16.0645L16.8061 17.8429C16.8175 17.8543 16.8274 17.8666 16.8358 17.8796C16.8382 17.8835 16.8406 17.8875 16.8429 17.8916ZM12.1779 17.6815C12.0209 17.7028 11.9 17.8372 11.9 18C11.9 18.1775 12.0439 18.3214 12.2214 18.3214C12.2214 18.3214 12.2214 18.3214 12.2214 18.3214L15.871 18.3216L14.6369 19.5508L14.6367 19.5507L14.6319 19.5562L14.6104 19.581L14.6102 19.5808M12.1779 17.6815L14.6102 19.5808M16.9711 18.0125L16.971 18.0125C16.9708 18.0187 16.9703 18.025 16.9697 18.0313L16.9697 18.0313L16.9711 18.0125ZM16.9711 18.0125L16.9711 18.0098L16.9711 18.0083L16.9711 18.0125ZM16.9497 18.1157L16.9497 18.1159C16.946 18.1253 16.942 18.1344 16.9375 18.1434C16.9375 18.1435 16.9374 18.1435 16.9374 18.1436L16.9497 18.1157ZM16.9497 18.1157C16.9516 18.111 16.9533 18.1061 16.9549 18.1013L16.9497 18.1157ZM14.6102 19.5808L14.6058 19.5867C14.5121 19.7124 14.5221 19.891 14.636 20.0054L14.7054 19.9362M14.6102 19.5808L14.7054 19.9362M14.7054 19.9362L14.636 20.0054M14.7054 19.9362L14.636 20.0054M14.636 20.0054C14.7613 20.1312 14.9648 20.1316 15.0905 20.0063L14.636 20.0054ZM16.971 17.9877C16.9708 17.9813 16.9703 17.9744 16.9696 17.9672L16.9712 18.0013C16.9712 18.0008 16.9712 18.0004 16.9712 18L16.9711 17.9898L16.9711 17.9898L16.971 17.9877ZM16.9628 18.0733C16.9639 18.0687 16.9649 18.0639 16.9658 18.059L16.9628 18.0735L16.9628 18.0733Z" fill="white" stroke="white" stroke-width="0.2"/>
</svg>
