<svg width="20" height="20" viewBox="0 0 20 20" fill="none" xmlns="http://www.w3.org/2000/svg">
<path d="M8.69421 0.0576115C6.66667 0.319357 4.72507 1.22569 3.2132 2.62036C1.43178 4.26505 0.294951 6.50355 0.0410196 8.87097C-0.0136732 9.3593 -0.0136732 10.6329 0.0410196 11.1212C0.502002 15.3794 3.74841 18.9501 7.93632 19.8056C9.23723 20.0674 10.8546 20.0674 12.1047 19.7978C14.476 19.2861 16.5661 17.9422 18.0272 15.9928C19.078 14.5903 19.7265 12.9847 19.9414 11.2462C20.0195 10.6133 20.0195 9.38274 19.9414 8.74596C19.7695 7.34739 19.2851 5.96053 18.5624 4.78464C16.9528 2.16329 14.2729 0.428741 11.2491 0.0537052C10.6436 -0.0205212 9.28802 -0.0166149 8.69421 0.0576115ZM11.4093 1.53432C13.2064 1.83904 14.7573 2.6438 16.0543 3.9408C17.3982 5.28469 18.2108 6.90203 18.4999 8.82409C18.5936 9.43353 18.5936 10.5586 18.4999 11.1681C18.2225 13.012 17.4529 14.5903 16.1715 15.9498C15.3433 16.8288 13.9955 17.6921 12.8274 18.0945C11.2452 18.6415 9.57711 18.7235 7.97148 18.3328C6.79949 18.0437 5.60016 17.4577 4.65475 16.6999C3.18976 15.5318 2.10763 13.8402 1.66227 12.0236C1.33802 10.6954 1.33802 9.2968 1.66227 7.96854C2.03731 6.44105 2.80691 5.07763 3.94374 3.9408C5.42436 2.46019 7.24094 1.62417 9.41303 1.42493C9.84276 1.38587 10.8624 1.44056 11.4093 1.53432Z" fill="white"/>
<path d="M10.1502 5.08049C9.92815 5.21683 9.86972 5.36095 9.86972 5.77385C9.86972 6.03094 9.85414 6.14 9.82298 6.14779C9.22311 6.31139 8.89591 6.46331 8.60766 6.72429C8.18697 7.09824 8 7.53061 8 8.13437C8 9.14714 8.52586 9.90282 9.52304 10.3235C9.65938 10.378 9.99827 10.5027 10.2787 10.6001C11.1824 10.9117 11.5174 11.1103 11.6421 11.4103C11.7161 11.5856 11.7161 11.9868 11.6421 12.1309C11.3694 12.6568 10.1112 12.7853 9.53084 12.3412C9.36334 12.2166 9.30102 12.0881 9.26596 11.8076C9.24648 11.6206 9.21532 11.5505 9.10236 11.4259C8.87254 11.1688 8.51417 11.1337 8.24151 11.3363C8.05843 11.4765 8 11.6206 8 11.9284C8 12.8321 8.63493 13.5332 9.70612 13.8059L9.86972 13.8487V14.211C9.86972 14.6472 9.93984 14.7875 10.232 14.9316C10.5514 15.0874 10.8981 14.9705 11.0656 14.6472C11.1045 14.5771 11.1396 14.3824 11.1513 14.1798L11.1746 13.8331L11.3889 13.7825C12.1329 13.5955 12.7756 13.0112 12.947 12.3685C13.0054 12.1504 13.0054 11.5388 12.9431 11.2895C12.7912 10.6507 12.3471 10.1054 11.72 9.78596C11.5291 9.68858 11.0811 9.5055 10.7267 9.38475C9.50746 8.96017 9.28543 8.77709 9.28543 8.1928C9.28543 7.85392 9.38671 7.702 9.74118 7.52671C9.971 7.41375 10.045 7.39817 10.3878 7.38649C10.8435 7.36701 11.1863 7.44102 11.4278 7.61631C11.6109 7.75264 11.6888 7.88508 11.7239 8.14996C11.7667 8.48105 11.9303 8.67581 12.2264 8.74203C12.4951 8.80436 12.7795 8.67581 12.9236 8.43041C13.0599 8.1967 12.9976 7.63968 12.7873 7.21899C12.686 7.01644 12.39 6.70482 12.1446 6.54121C11.9303 6.39709 11.3733 6.17117 11.237 6.17117C11.1746 6.17117 11.1629 6.12832 11.1474 5.80501C11.124 5.38822 11.0578 5.23631 10.8435 5.09218C10.6721 4.97532 10.3333 4.96753 10.1502 5.08049Z" fill="white"/>
</svg>
