<?xml version="1.0" encoding="UTF-8"?>
<!DOCTYPE svg PUBLIC "-//W3C//DTD SVG 1.1//EN" "http://www.w3.org/Graphics/SVG/1.1/DTD/svg11.dtd">
<!-- Creator: CorelDRAW 2020 (64-Bit) -->
<svg xmlns="http://www.w3.org/2000/svg" xml:space="preserve" width="100%" height="100%" version="1.1" style="shape-rendering:geometricPrecision; text-rendering:geometricPrecision; image-rendering:optimizeQuality; fill-rule:evenodd; clip-rule:evenodd"
viewBox="0 0 21000 29700"
 xmlns:xlink="http://www.w3.org/1999/xlink"
 xmlns:xodm="http://www.corel.com/coreldraw/odm/2003">
 <defs>
  <style type="text/css">
   <![CDATA[
    .fil0 {fill:#F56C89;fill-rule:nonzero}
   ]]>
  </style>
 </defs>
 <g id="Layer_x0020_1">
  <metadata id="CorelCorpID_0Corel-Layer"/>
  <g id="_2984894888848">
   <path class="fil0" d="M5836.22 3706.84c-232.07,107.15 -539.73,441.45 -597.92,655.76 -26.62,97.96 -48.97,267.57 -48.97,383.27l0 214.32 -744.85 0c-806.97,0 -1052.51,40.1 -1462.74,245.21 -486.15,236.34 -878.62,633.42 -1119.57,1141.6 -249.48,517.38 -240.61,44.7 -240.61,9432.85 0,7831.4 8.88,8678.8 71.33,8897.39 249.82,829.65 878.63,1458.46 1707.95,1707.95 218.59,62.45 905.59,71.66 6886.38,71.66 7371.87,0 6903.79,17.75 7474.75,-298.8 566.36,-316.87 1034.43,-936.81 1186.3,-1579.1 57.85,-249.48 66.72,-1382.53 66.72,-8942.09 0,-9557.43 22.36,-8807.98 -276.44,-9405.57 -178.48,-348.1 -646.56,-816.17 -994.66,-994.66 -476.95,-240.94 -677.79,-276.44 -1502.84,-276.44l-749.45 0 0 -169.61c0,-450.33 -267.56,-896.38 -646.56,-1074.87 -200.84,-93.68 -209.71,-93.68 -4513.45,-93.68 -4085.15,0 -4326.09,4.6 -4495.37,84.81zm8272.85 1922.26l0 668.92 -3768.6 0 -3768.61 0 0 -668.92 0 -668.91 3768.61 0 3768.6 0 0 668.91zm-8919.74 878.63c0,330.02 80.2,539.41 281.04,762.6 361.25,392.47 -17.75,365.52 4821.12,365.52 3242.35,0 4321.48,-13.15 4459.87,-53.25 267.57,-80.53 584.44,-410.55 668.91,-709.35 40.11,-129.18 71.33,-311.94 71.33,-410.22l0 -178.49 660.04 26.96c713.62,22.35 874.36,66.72 1141.93,298.79 80.2,75.6 196.23,231.74 249.81,347.77l102.56 209.71 -8.88 8496.04c-9.2,6203.66 -22.35,8540.75 -58.18,8669.93 -75.93,245.21 -396.75,584.44 -651.16,682.39 -200.51,75.93 -526.26,80.21 -6653.98,80.21l-6444.59 0 -209.72 -106.83c-240.61,-116.04 -450.32,-334.62 -552.88,-575.57 -67.06,-151.53 -71.33,-949.95 -67.06,-8661.05 4.61,-5962.71 22.36,-8540.41 58.18,-8652.17 48.98,-160.41 222.87,-423.7 347.77,-526.26 254.09,-209.39 508.51,-262.96 1239.88,-271.84l544.01 -4.6 0 209.71z"/>
   <path class="fil0" d="M7910.02 9892.74c-89.41,35.5 -499.63,410.22 -958.83,869.75l-807.3 798.1 -196.24 -205.11c-249.82,-254.09 -392.47,-330.02 -628.81,-330.02 -205.11,0 -481.88,133.78 -575.57,281.04 -97.95,165.01 -133.78,396.75 -84.47,588.71 40.1,138.06 165.01,294.19 548.28,682.39 272.17,281.04 548.61,535.13 615.66,570.63 156.14,80.54 495.03,80.54 651.17,0 142.66,-80.2 2252.28,-2194.1 2323.61,-2332.49 75.61,-146.93 57.86,-463.8 -31.22,-637.69 -89.41,-169.28 -397.08,-356.64 -588.71,-356.64 -62.46,4.27 -183.09,35.5 -267.57,71.33z"/>
   <path class="fil0" d="M10081.77 11377.83c-187.03,173.88 -187.03,178.49 -187.03,495.03 0,316.54 0,321.14 187.03,495.03l187.37 173.88 2622.41 0c2537.93,0 2627.01,-4.27 2769.67,-89.08 427.97,-263.29 427.97,-896.37 0,-1159.67 -142.66,-84.8 -231.74,-89.08 -2769.67,-89.08l-2622.41 0 -187.37 173.89z"/>
   <path class="fil0" d="M7910.02 14686.9c-62.45,22.35 -477.28,410.56 -923.33,852.01l-811.58 811.57 -240.94 -227.46c-289.91,-276.45 -517.38,-352.05 -798.09,-280.72 -468.41,129.18 -651.17,691.27 -356.98,1101.49 151.54,209.72 914.46,932.21 1065.99,1012.41 165.01,80.21 396.75,93.68 579.84,26.63 142.66,-53.25 2261.16,-2145.13 2359.12,-2327.89 98.28,-187.36 80.2,-530.86 -40.11,-709.02 -173.88,-263.29 -535.13,-374.72 -833.92,-259.02z"/>
   <path class="fil0" d="M10081.77 15837.7c-187.03,173.88 -187.03,178.16 -187.03,495.03 0,316.54 0,321.14 187.03,495.03l187.37 173.88 2622.41 0c2537.93,0 2627.01,-4.27 2769.67,-89.07 427.97,-263.3 427.97,-896.71 0,-1159.68 -142.66,-84.8 -231.74,-89.08 -2769.67,-89.08l-2622.41 0 -187.37 173.89z"/>
   <path class="fil0" d="M7910.02 19146.77c-62.45,22.36 -477.28,410.56 -923.33,852.01l-811.58 811.57 -240.94 -227.46c-289.91,-276.44 -517.38,-352.38 -798.09,-280.72 -468.41,129.18 -651.17,691.27 -356.98,1101.49 151.54,209.72 914.46,932.21 1065.99,1012.42 165.01,80.2 396.75,93.68 579.84,26.62 142.66,-53.58 2261.16,-2145.13 2359.12,-2327.89 98.28,-187.36 80.2,-530.86 -40.11,-709.35 -173.88,-262.96 -535.13,-374.39 -833.92,-258.69z"/>
   <path class="fil0" d="M10081.77 20297.57c-187.03,173.89 -187.03,178.49 -187.03,495.03 0,316.54 0,321.15 187.03,495.03l187.37 173.89 2640.16 0c2528.72,0 2644.76,-4.28 2778.54,-84.81 414.83,-258.36 414.83,-909.53 0,-1168.22 -133.78,-80.2 -249.82,-84.8 -2778.54,-84.8l-2640.16 0 -187.37 173.88z"/>
  </g>
 </g>
</svg>
