<?xml version="1.0" encoding="UTF-8"?>
<!DOCTYPE svg PUBLIC "-//W3C//DTD SVG 1.1//EN" "http://www.w3.org/Graphics/SVG/1.1/DTD/svg11.dtd">
<!-- Creator: CorelDRAW 2020 (64-Bit) -->
<svg xmlns="http://www.w3.org/2000/svg" xml:space="preserve" width="100%" height="100%" version="1.1" style="shape-rendering:geometricPrecision; text-rendering:geometricPrecision; image-rendering:optimizeQuality; fill-rule:evenodd; clip-rule:evenodd"
viewBox="0 0 21000 29700"
 xmlns:xlink="http://www.w3.org/1999/xlink"
 xmlns:xodm="http://www.corel.com/coreldraw/odm/2003">
 <defs>
  <style type="text/css">
   <![CDATA[
    .fil0 {fill:#FEFEFE;fill-rule:nonzero}
   ]]>
  </style>
 </defs>
 <g id="Layer_x0020_1">
  <metadata id="CorelCorpID_0Corel-Layer"/>
  <g id="_2984773363200">
   <g>
    <path class="fil0" d="M9603.39 4145.1c-350.04,40.53 -418.2,57.11 -478.99,121.59 -55.27,60.8 -33.16,-42.37 -311.34,1479.35 -127.12,694.53 -235.82,1289.58 -243.19,1320.91 -11.05,51.58 -22.1,62.63 -88.42,79.21 -318.72,81.06 -821.66,250.55 -1153.26,390.56 -206.34,86.59 -749.81,355.56 -862.19,427.41 -42.37,25.79 -84.74,47.9 -93.95,47.9 -11.06,0 -523.21,-362.93 -1140.37,-806.92 -617.16,-443.99 -1147.73,-817.97 -1180.89,-830.87 -121.59,-51.58 -202.66,-5.52 -665.07,392.41 -263.44,224.76 -887.97,852.97 -1132.99,1140.36 -222.91,259.76 -274.5,348.19 -257.92,442.15 7.37,35 318.72,506.62 795.86,1201.16 429.25,628.21 786.65,1151.42 790.34,1162.47 5.52,11.06 -36.85,97.64 -93.96,193.44 -145.54,243.18 -427.4,812.44 -532.42,1075.89 -134.48,337.13 -259.76,709.27 -342.66,1026.14 -12.89,49.74 -31.32,88.43 -40.53,88.43 -88.43,0 -2724.72,431.09 -2770.78,453.2 -33.16,16.58 -75.53,51.58 -92.11,77.37 -71.85,110.54 -128.96,1005.88 -110.54,1753.84 18.43,827.18 33.16,906.4 178.7,981.93 36.85,18.43 370.29,86.59 790.34,160.28 1273,222.92 1978.59,351.88 1987.8,359.25 3.69,3.68 33.17,114.22 66.33,243.18 182.38,705.59 510.3,1505.13 865.87,2096.5l119.75 202.65 -33.17 46.06c-149.22,200.81 -1366.96,1875.43 -1481.18,2032.02 -206.33,287.4 -204.49,309.51 86.59,652.16 361.08,427.41 1241.69,1274.85 1527.24,1468.29 112.38,75.54 195.28,66.33 351.88,-38.68 128.96,-86.59 2175.72,-1490.4 2210.72,-1516.19 11.06,-7.37 93.96,31.32 184.23,84.75 383.19,232.12 1013.25,515.83 1512.51,679.79 256.07,84.75 790.33,230.29 851.12,230.29 16.58,0 40.53,7.37 51.59,14.73 12.89,7.37 81.06,385.04 152.91,841.92 252.39,1584.35 280.02,1750.16 298.45,1845.95 23.95,121.59 105,198.97 232.12,221.07 47.9,7.37 466.1,14.74 926.66,14.74 801.39,0 1186.43,-18.42 1446.19,-66.32 103.17,-20.27 182.38,-84.75 210.02,-171.33 12.89,-42.37 493.72,-2593.92 523.2,-2772.62 1.85,-14.74 46.06,-36.85 95.8,-51.58 700.06,-195.28 1501.45,-549 2118.61,-934.03 140.01,-88.43 267.13,-154.75 280.02,-149.23 14.74,3.69 508.47,359.25 1099.84,788.49 589.52,429.25 1088.78,790.34 1107.2,799.55 143.7,73.69 213.7,38.69 541.63,-257.92 427.4,-388.72 884.28,-878.76 1249.05,-1343.01 173.18,-222.92 215.55,-302.14 198.97,-388.72 -7.37,-36.85 -331.61,-521.36 -830.87,-1243.53l-817.96 -1184.58 136.33 -272.66c313.18,-622.69 556.36,-1304.33 676.11,-1892.01 22.1,-110.54 46.05,-206.33 51.58,-213.7 7.37,-7.37 617.17,-108.7 1355.91,-226.6 740.6,-117.91 1368.81,-222.92 1396.45,-233.97 29.47,-11.06 71.84,-46.06 97.64,-79.22 38.68,-53.43 46.05,-86.59 62.63,-324.24 38.69,-578.47 12.89,-1261.95 -73.69,-1971.23 -46.05,-362.92 -79.22,-464.25 -173.17,-506.62 -31.32,-14.74 -681.64,-140.01 -1446.19,-280.03l-1387.23 -252.39 -79.21 -239.49c-169.5,-523.21 -455.04,-1149.58 -744.28,-1628.57 -82.9,-136.33 -149.22,-250.55 -149.22,-254.23 0,-3.69 357.4,-495.57 794.01,-1094.31 436.62,-598.74 808.76,-1114.58 829.02,-1145.9 44.22,-73.69 44.22,-152.91 3.69,-228.43 -103.17,-186.08 -954.29,-1079.58 -1350.38,-1416.71 -466.1,-397.93 -565.58,-467.94 -665.06,-467.94 -82.9,0 -25.79,-36.85 -1374.33,889.82 -600.59,412.67 -1096.16,749.81 -1101.68,749.81 -7.37,0 -191.6,-90.28 -410.83,-198.97 -532.41,-265.29 -875.07,-401.62 -1385.38,-549 -156.6,-46.05 -287.4,-86.59 -291.08,-88.42 -3.69,-3.69 -101.33,-615.32 -219.24,-1359.6 -127.11,-810.6 -222.91,-1376.18 -241.33,-1413.02 -51.59,-106.85 -106.85,-132.65 -338.98,-160.28 -617.16,-70.01 -1578.83,-81.06 -2068.87,-23.95l0 0zm1149.57 7827.81c764.55,58.95 1429.61,368.46 1956.49,913.77 320.56,333.45 539.79,685.32 685.33,1107.2 501.1,1436.97 -141.86,3001.06 -1514.35,3690.07 -176.86,86.59 -515.84,204.49 -720.33,246.86 -639.26,134.49 -1333.8,47.9 -1925.17,-237.65 -825.33,-399.77 -1422.23,-1147.74 -1623.04,-2035.71 -191.6,-845.6 -16.58,-1711.47 490.05,-2437.32 154.74,-219.23 477.14,-543.47 698.22,-700.06 418.2,-296.61 932.19,-491.89 1431.44,-545.32 210.02,-22.1 246.86,-22.1 521.36,-1.84z"/>
   </g>
  </g>
 </g>
</svg>
