<svg width="9" height="10" viewBox="0 0 9 10" fill="none" xmlns="http://www.w3.org/2000/svg">
<path d="M0.697013 0.0859804C0.47716 0.168645 0.31359 0.339251 0.213337 0.587245L0.172884 0.68574L0.167607 4.49887C0.16409 8.67432 0.157054 8.41929 0.264343 8.63914C0.339972 8.7904 0.445502 8.89769 0.598519 8.97332C0.719878 9.03312 0.748019 9.04016 0.902796 9.04543C1.09099 9.05423 1.20883 9.0296 1.36888 8.9487C1.41637 8.92407 2.84981 8.0517 4.55236 7.01047C7.79915 5.02476 7.79035 5.03004 7.92051 4.82777C8.13508 4.49184 8.06649 4.05565 7.75166 3.77599C7.68658 3.71619 6.73506 3.16744 4.53125 1.9134C2.81112 0.933734 1.36009 0.11588 1.30733 0.0947742C1.2317 0.0648746 1.16486 0.0543213 1.00833 0.0490446C0.828925 0.0437679 0.793749 0.047286 0.697013 0.0859804ZM2.64227 1.7639C3.51817 2.2634 4.89005 3.04432 5.69032 3.49986C6.49058 3.95539 7.16773 4.34409 7.19411 4.3652L7.24336 4.40389L7.20115 4.43731C7.11848 4.50415 1.0224 8.22758 0.992496 8.22934C0.966114 8.2311 0.964355 7.95672 0.959078 4.57274C0.957319 2.56065 0.959078 0.896798 0.964355 0.873934C0.97139 0.842275 0.981943 0.835239 1.01184 0.845793C1.03295 0.851068 1.76638 1.26439 2.64227 1.7639Z" fill="#F7931A"/>
</svg>
