<svg width="9" height="10" viewBox="0 0 9 10" fill="none" xmlns="http://www.w3.org/2000/svg">
<path d="M0.697013 0.750165C0.47716 0.832829 0.31359 1.00344 0.213337 1.25143L0.172884 1.34992L0.167607 5.16306C0.16409 9.33851 0.157054 9.08348 0.264343 9.30333C0.339972 9.45459 0.445502 9.56188 0.598519 9.63751C0.719878 9.69731 0.748019 9.70434 0.902796 9.70962C1.09099 9.71841 1.20883 9.69379 1.36888 9.61288C1.41637 9.58826 2.84981 8.71588 4.55236 7.67466C7.79915 5.68894 7.79035 5.69422 7.92051 5.49196C8.13508 5.15602 8.06649 4.71983 7.75166 4.44018C7.68658 4.38038 6.73506 3.83163 4.53125 2.57758C2.81112 1.59792 1.36009 0.780065 1.30733 0.758959C1.2317 0.729059 1.16486 0.718506 1.00833 0.713229C0.828925 0.707952 0.793749 0.711471 0.697013 0.750165ZM2.64227 2.42808C3.51817 2.92759 4.89005 3.70851 5.69032 4.16404C6.49058 4.61958 7.16773 5.00828 7.19411 5.02938L7.24336 5.06808L7.20115 5.1015C7.11848 5.16833 1.0224 8.89176 0.992496 8.89352C0.966114 8.89528 0.964355 8.6209 0.959078 5.23693C0.957319 3.22483 0.959078 1.56098 0.964355 1.53812C0.97139 1.50646 0.981943 1.49942 1.01184 1.50998C1.03295 1.51525 1.76638 1.92858 2.64227 2.42808Z" fill="#F7931A"/>
</svg>
