<svg width="9" height="10" viewBox="0 0 9 10" fill="none" xmlns="http://www.w3.org/2000/svg">
<path d="M0.697013 0.757611C0.47716 0.840276 0.31359 1.01088 0.213337 1.25888L0.172884 1.35737L0.167607 5.1705C0.16409 9.34595 0.157054 9.09092 0.264343 9.31077C0.339972 9.46203 0.445502 9.56932 0.598519 9.64495C0.719878 9.70475 0.748019 9.71179 0.902796 9.71706C1.09099 9.72586 1.20883 9.70123 1.36888 9.62033C1.41637 9.5957 2.84981 8.72333 4.55236 7.6821C7.79915 5.69639 7.79035 5.70167 7.92051 5.4994C8.13508 5.16347 8.06649 4.72728 7.75166 4.44762C7.68658 4.38783 6.73506 3.83907 4.53125 2.58503C2.81112 1.60536 1.36009 0.787511 1.30733 0.766405C1.2317 0.736506 1.16486 0.725952 1.00833 0.720675C0.828925 0.715399 0.793749 0.718917 0.697013 0.757611ZM2.64227 2.43553C3.51817 2.93504 4.89005 3.71595 5.69032 4.17149C6.49058 4.62703 7.16773 5.01573 7.19411 5.03683L7.24336 5.07553L7.20115 5.10894C7.11848 5.17578 1.0224 8.89921 0.992496 8.90097C0.966114 8.90273 0.964355 8.62835 0.959078 5.24437C0.957319 3.23228 0.959078 1.56843 0.964355 1.54556C0.97139 1.51391 0.981943 1.50687 1.01184 1.51742C1.03295 1.5227 1.76638 1.93602 2.64227 2.43553Z" fill="#F7931A"/>
</svg>
