<svg width="9" height="10" viewBox="0 0 9 10" fill="none" xmlns="http://www.w3.org/2000/svg">
<path d="M0.697013 0.421918C0.47716 0.504582 0.31359 0.675188 0.213337 0.923182L0.172884 1.02168L0.167607 4.83481C0.16409 9.01026 0.157054 8.75523 0.264343 8.97508C0.339972 9.12634 0.445502 9.23363 0.598519 9.30926C0.719878 9.36906 0.748019 9.37609 0.902796 9.38137C1.09099 9.39016 1.20883 9.36554 1.36888 9.28463C1.41637 9.26001 2.84981 8.38763 4.55236 7.34641C7.79915 5.3607 7.79035 5.36597 7.92051 5.16371C8.13508 4.82777 8.06649 4.39158 7.75166 4.11193C7.68658 4.05213 6.73506 3.50338 4.53125 2.24934C2.81112 1.26967 1.36009 0.451818 1.30733 0.430712C1.2317 0.400812 1.16486 0.390259 1.00833 0.384982C0.828925 0.379705 0.793749 0.383224 0.697013 0.421918ZM2.64227 2.09984C3.51817 2.59934 4.89005 3.38026 5.69032 3.8358C6.49058 4.29133 7.16773 4.68003 7.19411 4.70114L7.24336 4.73983L7.20115 4.77325C7.11848 4.84009 1.0224 8.56352 0.992496 8.56528C0.966114 8.56703 0.964355 8.29266 0.959078 4.90868C0.957319 2.89658 0.959078 1.23274 0.964355 1.20987C0.97139 1.17821 0.981943 1.17118 1.01184 1.18173C1.03295 1.18701 1.76638 1.60033 2.64227 2.09984Z" fill="#F7931A"/>
</svg>
