<svg width="26" height="22" viewBox="0 0 26 22" fill="none" xmlns="http://www.w3.org/2000/svg">
<g clip-path="url(#clip0_40_303)">
<path d="M12.1494 11.0769C12.1494 10.2575 11.897 9.45648 11.4242 8.77517C10.9514 8.09385 10.2795 7.56283 9.49324 7.24926C8.70702 6.93568 7.84189 6.85363 7.00724 7.01349C6.1726 7.17335 5.40593 7.56794 4.80418 8.14735C4.20244 8.72676 3.79264 9.46497 3.62662 10.2686C3.4606 11.0723 3.54581 11.9053 3.87147 12.6624C4.19713 13.4194 4.74862 14.0665 5.4562 14.5217C6.16378 14.9769 6.99566 15.2199 7.84666 15.2199C8.98781 15.2199 10.0822 14.7834 10.8891 14.0065C11.696 13.2295 12.1494 12.1757 12.1494 11.0769Z" fill="#333333"/>
<path d="M23.812 12.0217C24.5307 11.5968 24.5307 10.557 23.812 10.1322L9.42746 1.62805C8.69586 1.19553 7.77144 1.7229 7.77144 2.57279V2.60838C7.77144 3.20564 7.29145 3.68531 6.70142 3.77792C5.094 4.03022 3.60123 4.77026 2.44912 5.90377C1.04475 7.28548 0.258301 9.14189 0.258301 11.0752C0.258301 13.0085 1.04475 14.8649 2.44912 16.2466C3.60123 17.3801 5.094 18.1202 6.70142 18.3725C7.29145 18.4651 7.77144 18.9448 7.77144 19.542V19.581C7.77144 20.4309 8.69586 20.9583 9.42746 20.5258L23.812 12.0217ZM2.05707 11.0769C2.05707 9.9744 2.3966 8.89666 3.03273 7.97996C3.66886 7.06326 4.57301 6.34879 5.63086 5.92688C6.6887 5.50497 7.85272 5.39457 8.97572 5.60966C10.0987 5.82475 11.1303 6.35566 11.9399 7.13525C12.7495 7.91483 13.3009 8.90809 13.5243 9.98941C13.7477 11.0707 13.633 12.1915 13.1949 13.2101C12.7567 14.2287 12.0147 15.0993 11.0626 15.7118C10.1106 16.3243 8.9913 16.6513 7.8463 16.6513C7.08605 16.6513 6.33324 16.5071 5.63086 16.227C4.92848 15.9468 4.29028 15.5362 3.7527 15.0186C2.667 13.9732 2.05707 12.5553 2.05707 11.0769Z" fill="url(#paint0_linear_40_303)"/>
</g>
<defs>
<linearGradient id="paint0_linear_40_303" x1="5.36798" y1="0.603532" x2="41.8649" y2="39.012" gradientUnits="userSpaceOnUse">
<stop stop-color="#333333"/>
<stop offset="1" stop-color="white"/>
</linearGradient>
<clipPath id="clip0_40_303">
<rect x="0.167725" y="0.649017" width="25.2423" height="20.8524" fill="white"/>
</clipPath>
</defs>
</svg>
