<svg width="26" height="21" viewBox="0 0 26 21" fill="none" xmlns="http://www.w3.org/2000/svg">
<g clip-path="url(#clip0_40_387)">
<path d="M12.1252 10.5142C12.1252 9.69482 11.8729 8.89381 11.4001 8.2125C10.9273 7.53118 10.2553 7.00016 9.46907 6.68659C8.68285 6.37301 7.81772 6.29096 6.98307 6.45082C6.14843 6.61068 5.38176 7.00527 4.78001 7.58468C4.17827 8.16409 3.76847 8.9023 3.60245 9.70597C3.43643 10.5096 3.52164 11.3427 3.8473 12.0997C4.17296 12.8567 4.72445 13.5038 5.43203 13.959C6.13961 14.4143 6.97149 14.6572 7.82249 14.6572C8.96364 14.6572 10.058 14.2208 10.865 13.4438C11.6719 12.6668 12.1252 11.613 12.1252 10.5142Z" fill="#333333"/>
<path d="M23.7879 11.459C24.5065 11.0341 24.5065 9.99434 23.7879 9.5695L9.40329 1.06538C8.67169 0.632862 7.74727 1.16023 7.74727 2.01013V2.04571C7.74727 2.64297 7.26728 3.12264 6.67725 3.21525C5.06983 3.46755 3.57706 4.20759 2.42495 5.3411C1.02058 6.72281 0.234131 8.57922 0.234131 10.5125C0.234131 12.4458 1.02058 14.3022 2.42495 15.684C3.57706 16.8175 5.06983 17.5575 6.67725 17.8098C7.26728 17.9024 7.74727 18.3821 7.74727 18.9794V19.0184C7.74727 19.8683 8.67169 20.3956 9.40329 19.9631L23.7879 11.459ZM2.0329 10.5142C2.0329 9.41174 2.37243 8.33399 3.00856 7.41729C3.64469 6.50059 4.54884 5.78612 5.60669 5.36421C6.66453 4.9423 7.82855 4.8319 8.95155 5.04699C10.0746 5.26208 11.1061 5.79299 11.9157 6.57258C12.7254 7.35217 13.2767 8.34542 13.5001 9.42674C13.7235 10.5081 13.6089 11.6289 13.1707 12.6475C12.7325 13.666 11.9905 14.5366 11.0385 15.1492C10.0864 15.7617 8.96713 16.0886 7.82213 16.0886C7.06188 16.0886 6.30907 15.9444 5.60669 15.6643C4.90431 15.3841 4.26611 14.9735 3.72853 14.4559C2.64283 13.4105 2.0329 11.9927 2.0329 10.5142Z" fill="url(#paint0_linear_40_387)"/>
</g>
<defs>
<linearGradient id="paint0_linear_40_387" x1="5.34381" y1="0.0408638" x2="41.8408" y2="38.4494" gradientUnits="userSpaceOnUse">
<stop stop-color="#333333"/>
<stop offset="1" stop-color="white"/>
</linearGradient>
<clipPath id="clip0_40_387">
<rect x="0.143799" y="0.0863495" width="25.2423" height="20.8524" fill="white"/>
</clipPath>
</defs>
</svg>
