<svg width="27" height="21" viewBox="0 0 27 21" fill="none" xmlns="http://www.w3.org/2000/svg">
<g clip-path="url(#clip0_40_358)">
<path d="M12.8574 10.5142C12.8574 9.69482 12.605 8.89381 12.1322 8.2125C11.6595 7.53118 10.9875 7.00016 10.2012 6.68659C9.41503 6.37301 8.54989 6.29096 7.71525 6.45082C6.8806 6.61068 6.11394 7.00527 5.51219 7.58468C4.91045 8.16409 4.50065 8.9023 4.33463 9.70597C4.16861 10.5096 4.25382 11.3427 4.57948 12.0997C4.90514 12.8567 5.45663 13.5038 6.16421 13.959C6.87178 14.4143 7.70367 14.6572 8.55467 14.6572C9.69582 14.6572 10.7902 14.2208 11.5971 13.4438C12.4041 12.6668 12.8574 11.613 12.8574 10.5142Z" fill="#333333"/>
<path d="M24.5201 11.459C25.2387 11.0341 25.2387 9.99434 24.5201 9.5695L10.1355 1.06538C9.40387 0.632862 8.47945 1.16023 8.47945 2.01013V2.04571C8.47945 2.64297 7.99946 3.12264 7.40942 3.21525C5.80201 3.46755 4.30924 4.20759 3.15713 5.3411C1.75276 6.72281 0.966309 8.57922 0.966309 10.5125C0.966309 12.4458 1.75276 14.3022 3.15713 15.684C4.30924 16.8175 5.80201 17.5575 7.40942 17.8098C7.99946 17.9024 8.47945 18.3821 8.47945 18.9794V19.0184C8.47945 19.8683 9.40387 20.3956 10.1355 19.9631L24.5201 11.459ZM2.76508 10.5142C2.76508 9.41174 3.10461 8.33399 3.74074 7.41729C4.37687 6.50059 5.28102 5.78612 6.33887 5.36421C7.39671 4.9423 8.56073 4.8319 9.68373 5.04699C10.8067 5.26208 11.8383 5.79299 12.6479 6.57258C13.4576 7.35217 14.0089 8.34542 14.2323 9.42674C14.4557 10.5081 14.341 11.6289 13.9029 12.6475C13.4647 13.666 12.7227 14.5366 11.7706 15.1492C10.8186 15.7617 9.69931 16.0886 8.55431 16.0886C7.79406 16.0886 7.04125 15.9444 6.33887 15.6643C5.63648 15.3841 4.99828 14.9735 4.4607 14.4559C3.37501 13.4105 2.76508 11.9927 2.76508 10.5142Z" fill="url(#paint0_linear_40_358)"/>
</g>
<defs>
<linearGradient id="paint0_linear_40_358" x1="6.07599" y1="0.0408638" x2="42.5729" y2="38.4494" gradientUnits="userSpaceOnUse">
<stop stop-color="#333333"/>
<stop offset="1" stop-color="white"/>
</linearGradient>
<clipPath id="clip0_40_358">
<rect x="0.875732" y="0.0863495" width="25.2423" height="20.8524" fill="white"/>
</clipPath>
</defs>
</svg>
