<svg width="27" height="21" viewBox="0 0 27 21" fill="none" xmlns="http://www.w3.org/2000/svg">
<g clip-path="url(#clip0_40_353)">
<path d="M12.8571 10.4446C12.8571 9.62518 12.6048 8.82417 12.132 8.14286C11.6592 7.46154 10.9872 6.93052 10.201 6.61695C9.41478 6.30337 8.54965 6.22132 7.715 6.38118C6.88036 6.54104 6.11369 6.93563 5.51195 7.51504C4.9102 8.09445 4.50041 8.83266 4.33439 9.63633C4.16837 10.44 4.25357 11.273 4.57924 12.0301C4.9049 12.7871 5.45639 13.4341 6.16396 13.8894C6.87154 14.3446 7.70343 14.5876 8.55442 14.5876C9.69557 14.5876 10.79 14.1511 11.5969 13.3741C12.4038 12.5972 12.8571 11.5434 12.8571 10.4446Z" fill="#333333"/>
<path d="M24.5198 11.3893C25.2384 10.9645 25.2384 9.9247 24.5198 9.49986L10.1352 0.995742C9.40362 0.563221 8.4792 1.09059 8.4792 1.94048V1.97607C8.4792 2.57333 7.99921 3.053 7.40918 3.14561C5.80177 3.39791 4.30899 4.13795 3.15689 5.27146C1.75251 6.65317 0.966064 8.50958 0.966064 10.4429C0.966064 12.3762 1.75251 14.2326 3.15689 15.6143C4.30899 16.7478 5.80177 17.4879 7.40918 17.7402C7.99921 17.8328 8.4792 18.3125 8.4792 18.9097V18.9487C8.4792 19.7986 9.40362 20.326 10.1352 19.8935L24.5198 11.3893ZM2.76483 10.4446C2.76483 9.3421 3.10436 8.26435 3.74049 7.34765C4.37662 6.43095 5.28078 5.71648 6.33862 5.29457C7.39647 4.87266 8.56049 4.76226 9.68349 4.97735C10.8065 5.19244 11.838 5.72335 12.6477 6.50294C13.4573 7.28252 14.0087 8.27578 14.2321 9.3571C14.4554 10.4384 14.3408 11.5592 13.9026 12.5778C13.4644 13.5964 12.7224 14.467 11.7704 15.0795C10.8184 15.692 9.69907 16.019 8.55407 16.019C7.79381 16.019 7.041 15.8748 6.33862 15.5946C5.63624 15.3145 4.99804 14.9039 4.46046 14.3863C3.37477 13.3409 2.76483 11.923 2.76483 10.4446Z" fill="url(#paint0_linear_40_353)"/>
</g>
<defs>
<linearGradient id="paint0_linear_40_353" x1="6.07574" y1="-0.0287773" x2="42.5727" y2="38.3797" gradientUnits="userSpaceOnUse">
<stop stop-color="#333333"/>
<stop offset="1" stop-color="white"/>
</linearGradient>
<clipPath id="clip0_40_353">
<rect x="0.875488" y="0.0167084" width="25.2423" height="20.8524" fill="white"/>
</clipPath>
</defs>
</svg>
