<svg width="26" height="22" viewBox="0 0 26 22" fill="none" xmlns="http://www.w3.org/2000/svg">
<g clip-path="url(#clip0_40_329)">
<path d="M12.4179 11.0769C12.4179 10.2575 12.1656 9.45648 11.6928 8.77517C11.22 8.09385 10.548 7.56283 9.76179 7.24926C8.97557 6.93568 8.11044 6.85363 7.2758 7.01349C6.44115 7.17335 5.67448 7.56794 5.07274 8.14735C4.47099 8.72676 4.0612 9.46497 3.89518 10.2686C3.72916 11.0723 3.81436 11.9053 4.14003 12.6624C4.46569 13.4194 5.01718 14.0665 5.72475 14.5217C6.43233 14.9769 7.26422 15.2199 8.11521 15.2199C9.25636 15.2199 10.3508 14.7834 11.1577 14.0065C11.9646 13.2295 12.4179 12.1757 12.4179 11.0769Z" fill="#333333"/>
<path d="M24.0806 12.0217C24.7992 11.5968 24.7992 10.557 24.0806 10.1322L9.69602 1.62807C8.96441 1.19555 8.04 1.72292 8.04 2.57281V2.60839C8.04 3.20565 7.56 3.68533 6.96997 3.77794C5.36256 4.03023 3.86978 4.77028 2.71768 5.90378C1.3133 7.28549 0.526855 9.1419 0.526855 11.0752C0.526855 13.0085 1.3133 14.8649 2.71768 16.2466C3.86978 17.3801 5.36256 18.1202 6.96997 18.3725C7.56 18.4651 8.04 18.9448 8.04 19.542V19.581C8.04 20.4309 8.96441 20.9583 9.69602 20.5258L24.0806 12.0217ZM2.32562 11.0769C2.32562 9.97442 2.66516 8.89667 3.30128 7.97997C3.93741 7.06328 4.84157 6.3488 5.89941 5.92689C6.95726 5.50498 8.12128 5.39459 9.24428 5.60967C10.3673 5.82476 11.3988 6.35567 12.2085 7.13526C13.0181 7.91485 13.5695 8.90811 13.7929 9.98943C14.0162 11.0707 13.9016 12.1916 13.4634 13.2101C13.0252 14.2287 12.2832 15.0993 11.3312 15.7118C10.3791 16.3244 9.25986 16.6513 8.11486 16.6513C7.3546 16.6513 6.60179 16.5071 5.89941 16.227C5.19703 15.9468 4.55883 15.5362 4.02125 15.0186C2.93556 13.9732 2.32562 12.5553 2.32562 11.0769Z" fill="url(#paint0_linear_40_329)"/>
</g>
<defs>
<linearGradient id="paint0_linear_40_329" x1="5.63653" y1="0.603547" x2="42.1335" y2="39.0121" gradientUnits="userSpaceOnUse">
<stop stop-color="#333333"/>
<stop offset="1" stop-color="white"/>
</linearGradient>
<clipPath id="clip0_40_329">
<rect x="0.436523" y="0.649017" width="25.2423" height="20.8524" fill="white"/>
</clipPath>
</defs>
</svg>
