<svg width="26" height="21" viewBox="0 0 26 21" fill="none" xmlns="http://www.w3.org/2000/svg">
<g clip-path="url(#clip0_40_381)">
<path d="M12.1254 10.4446C12.1254 9.62518 11.8731 8.82417 11.4003 8.14286C10.9275 7.46154 10.2555 6.93052 9.46931 6.61695C8.68309 6.30337 7.81796 6.22132 6.98332 6.38118C6.14867 6.54104 5.382 6.93563 4.78026 7.51504C4.17851 8.09445 3.76872 8.83266 3.6027 9.63633C3.43668 10.44 3.52188 11.273 3.84755 12.0301C4.17321 12.7871 4.7247 13.4341 5.43227 13.8894C6.13985 14.3446 6.97174 14.5876 7.82273 14.5876C8.96388 14.5876 10.0583 14.1511 10.8652 13.3741C11.6721 12.5972 12.1254 11.5434 12.1254 10.4446Z" fill="#333333"/>
<path d="M23.7881 11.3893C24.5067 10.9645 24.5067 9.9247 23.7881 9.49986L9.40354 0.995742C8.67193 0.563221 7.74752 1.09059 7.74752 1.94048V1.97607C7.74752 2.57333 7.26752 3.053 6.67749 3.14561C5.07008 3.39791 3.5773 4.13795 2.4252 5.27146C1.02082 6.65317 0.234375 8.50958 0.234375 10.4429C0.234375 12.3762 1.02082 14.2326 2.4252 15.6143C3.5773 16.7478 5.07008 17.4879 6.67749 17.7402C7.26752 17.8328 7.74752 18.3125 7.74752 18.9097V18.9487C7.74752 19.7986 8.67193 20.326 9.40354 19.8935L23.7881 11.3893ZM2.03314 10.4446C2.03314 9.3421 2.37267 8.26435 3.0088 7.34765C3.64493 6.43095 4.54909 5.71648 5.60693 5.29457C6.66478 4.87266 7.8288 4.76226 8.9518 4.97735C10.0748 5.19244 11.1063 5.72335 11.916 6.50294C12.7256 7.28252 13.277 8.27578 13.5004 9.3571C13.7238 10.4384 13.6091 11.5592 13.1709 12.5778C12.7328 13.5964 11.9907 14.467 11.0387 15.0795C10.0867 15.692 8.96738 16.019 7.82238 16.019C7.06212 16.019 6.30931 15.8748 5.60693 15.5946C4.90455 15.3145 4.26635 14.9039 3.72877 14.3863C2.64308 13.3409 2.03314 11.923 2.03314 10.4446Z" fill="url(#paint0_linear_40_381)"/>
</g>
<defs>
<linearGradient id="paint0_linear_40_381" x1="5.34405" y1="-0.0287773" x2="41.841" y2="38.3797" gradientUnits="userSpaceOnUse">
<stop stop-color="#333333"/>
<stop offset="1" stop-color="white"/>
</linearGradient>
<clipPath id="clip0_40_381">
<rect x="0.144043" y="0.0167084" width="25.2423" height="20.8524" fill="white"/>
</clipPath>
</defs>
</svg>
