<svg width="26" height="22" viewBox="0 0 26 22" fill="none" xmlns="http://www.w3.org/2000/svg">
<g clip-path="url(#clip0_40_308)">
<path d="M12.1496 11.049C12.1496 10.2296 11.8973 9.42863 11.4245 8.74732C10.9517 8.066 10.2797 7.53498 9.49348 7.22141C8.70726 6.90783 7.84213 6.82579 7.00749 6.98564C6.17284 7.1455 5.40617 7.54009 4.80443 8.1195C4.20268 8.69891 3.79289 9.43712 3.62687 10.2408C3.46085 11.0445 3.54605 11.8775 3.87172 12.6345C4.19738 13.3916 4.74887 14.0386 5.45644 14.4938C6.16402 14.9491 6.99591 15.1921 7.8469 15.1921C8.98805 15.1921 10.0825 14.7556 10.8894 13.9786C11.6963 13.2016 12.1496 12.1478 12.1496 11.049Z" fill="#333333"/>
<path d="M23.8123 11.9938C24.5309 11.569 24.5309 10.5292 23.8123 10.1043L9.42771 1.6002C8.6961 1.16768 7.77169 1.69505 7.77169 2.54495V2.58053C7.77169 3.17779 7.29169 3.65746 6.70166 3.75007C5.09425 4.00237 3.60147 4.74241 2.44937 5.87592C1.04499 7.25763 0.258545 9.11404 0.258545 11.0474C0.258545 12.9807 1.04499 14.8371 2.44937 16.2188C3.60147 17.3523 5.09425 18.0923 6.70166 18.3446C7.29169 18.4372 7.77169 18.9169 7.77169 19.5142V19.5532C7.77169 20.4031 8.6961 20.9304 9.42771 20.4979L23.8123 11.9938ZM2.05731 11.0491C2.05731 9.94656 2.39684 8.86881 3.03297 7.95211C3.6691 7.03541 4.57326 6.32094 5.6311 5.89903C6.68895 5.47712 7.85297 5.36672 8.97597 5.58181C10.099 5.7969 11.1305 6.32781 11.9402 7.1074C12.7498 7.88699 13.3012 8.88025 13.5245 9.96157C13.7479 11.0429 13.6333 12.1637 13.1951 13.1823C12.7569 14.2009 12.0149 15.0715 11.0629 15.684C10.1108 16.2965 8.99155 16.6234 7.84655 16.6234C7.08629 16.6234 6.33348 16.4792 5.6311 16.1991C4.92872 15.919 4.29052 15.5084 3.75294 14.9907C2.66725 13.9453 2.05731 12.5275 2.05731 11.0491Z" fill="url(#paint0_linear_40_308)"/>
</g>
<defs>
<linearGradient id="paint0_linear_40_308" x1="5.36822" y1="0.575684" x2="41.8652" y2="38.9842" gradientUnits="userSpaceOnUse">
<stop stop-color="#333333"/>
<stop offset="1" stop-color="white"/>
</linearGradient>
<clipPath id="clip0_40_308">
<rect x="0.167969" y="0.62117" width="25.2423" height="20.8524" fill="white"/>
</clipPath>
</defs>
</svg>
