<svg width="26" height="22" viewBox="0 0 26 22" fill="none" xmlns="http://www.w3.org/2000/svg">
<g clip-path="url(#clip0_40_334)">
<path d="M12.4177 10.9042C12.4177 10.0848 12.1653 9.28378 11.6925 8.60247C11.2198 7.92115 10.5478 7.39013 9.76155 7.07656C8.97533 6.76298 8.1102 6.68093 7.27555 6.84079C6.44091 7.00065 5.67424 7.39524 5.07249 7.97465C4.47075 8.55406 4.06095 9.29227 3.89493 10.0959C3.72891 10.8996 3.81412 11.7326 4.13978 12.4897C4.46544 13.2467 5.01693 13.8938 5.72451 14.349C6.43209 14.8042 7.26397 15.0472 8.11497 15.0472C9.25612 15.0472 10.3505 14.6107 11.1574 13.8338C11.9644 13.0568 12.4177 12.003 12.4177 10.9042Z" fill="#333333"/>
<path d="M24.0804 11.849C24.799 11.4241 24.799 10.3843 24.0804 9.95947L9.69577 1.45535C8.96417 1.02283 8.03975 1.5502 8.03975 2.40009V2.43568C8.03975 3.03294 7.55976 3.51261 6.96973 3.60522C5.36231 3.85752 3.86954 4.59756 2.71743 5.73107C1.31306 7.11278 0.526611 8.96919 0.526611 10.9025C0.526611 12.8358 1.31306 14.6922 2.71743 16.0739C3.86954 17.2074 5.36231 17.9475 6.96973 18.1998C7.55976 18.2924 8.03975 18.7721 8.03975 19.3693V19.4083C8.03975 20.2582 8.96417 20.7856 9.69577 20.3531L24.0804 11.849ZM2.32538 10.9042C2.32538 9.80171 2.66491 8.72396 3.30104 7.80726C3.93717 6.89056 4.84132 6.17609 5.89917 5.75418C6.95701 5.33227 8.12103 5.22187 9.24403 5.43696C10.367 5.65205 11.3986 6.18296 12.2082 6.96255C13.0179 7.74213 13.5692 8.73539 13.7926 9.81671C14.016 10.898 13.9013 12.0188 13.4632 13.0374C13.025 14.056 12.283 14.9266 11.3309 15.5391C10.3789 16.1516 9.25961 16.4786 8.11461 16.4786C7.35436 16.4786 6.60155 16.3344 5.89917 16.0543C5.19679 15.7741 4.55859 15.3635 4.02101 14.8459C2.93531 13.8005 2.32538 12.3826 2.32538 10.9042Z" fill="url(#paint0_linear_40_334)"/>
</g>
<defs>
<linearGradient id="paint0_linear_40_334" x1="5.63629" y1="0.430833" x2="42.1332" y2="38.8393" gradientUnits="userSpaceOnUse">
<stop stop-color="#333333"/>
<stop offset="1" stop-color="white"/>
</linearGradient>
<clipPath id="clip0_40_334">
<rect x="0.436279" y="0.476318" width="25.2423" height="20.8524" fill="white"/>
</clipPath>
</defs>
</svg>
