<svg width="27" height="22" viewBox="0 0 27 22" fill="none" xmlns="http://www.w3.org/2000/svg">
<g clip-path="url(#clip0_40_367)">
<path d="M12.8574 11.3415C12.8574 10.5221 12.605 9.72113 12.1322 9.03982C11.6595 8.3585 10.9875 7.82748 10.2012 7.5139C9.41503 7.20033 8.54989 7.11828 7.71525 7.27814C6.8806 7.438 6.11394 7.83259 5.51219 8.412C4.91045 8.99141 4.50065 9.72962 4.33463 10.5333C4.16861 11.337 4.25382 12.17 4.57948 12.927C4.90514 13.6841 5.45663 14.3311 6.16421 14.7863C6.87178 15.2416 7.70367 15.4846 8.55467 15.4846C9.69582 15.4846 10.7902 15.0481 11.5971 14.2711C12.4041 13.4941 12.8574 12.4403 12.8574 11.3415Z" fill="#333333"/>
<path d="M24.5201 12.2863C25.2387 11.8614 25.2387 10.8216 24.5201 10.3968L10.1355 1.89268C9.40387 1.46016 8.47945 1.98753 8.47945 2.83743V2.87301C8.47945 3.47027 7.99946 3.94994 7.40942 4.04255C5.80201 4.29485 4.30924 5.0349 3.15713 6.1684C1.75276 7.55011 0.966309 9.40652 0.966309 11.3398C0.966309 13.2731 1.75276 15.1295 3.15713 16.5113C4.30924 17.6448 5.80201 18.3848 7.40942 18.6371C7.99946 18.7297 8.47945 19.2094 8.47945 19.8067V19.8457C8.47945 20.6956 9.40387 21.2229 10.1355 20.7904L24.5201 12.2863ZM2.76508 11.3415C2.76508 10.239 3.10461 9.16129 3.74074 8.24459C4.37687 7.32789 5.28102 6.61342 6.33887 6.19151C7.39671 5.7696 8.56073 5.6592 9.68373 5.87429C10.8067 6.08938 11.8383 6.62029 12.6479 7.39988C13.4576 8.17947 14.0089 9.17273 14.2323 10.254C14.4557 11.3354 14.341 12.4562 13.9029 13.4748C13.4647 14.4933 12.7227 15.3639 11.7706 15.9765C10.8186 16.589 9.69931 16.9159 8.55431 16.9159C7.79406 16.9159 7.04125 16.7717 6.33887 16.4916C5.63648 16.2114 4.99828 15.8008 4.4607 15.2832C3.37501 14.2378 2.76508 12.82 2.76508 11.3415Z" fill="url(#paint0_linear_40_367)"/>
</g>
<defs>
<linearGradient id="paint0_linear_40_367" x1="6.07599" y1="0.868165" x2="42.5729" y2="39.2767" gradientUnits="userSpaceOnUse">
<stop stop-color="#333333"/>
<stop offset="1" stop-color="white"/>
</linearGradient>
<clipPath id="clip0_40_367">
<rect x="0.875732" y="0.913651" width="25.2423" height="20.8524" fill="white"/>
</clipPath>
</defs>
</svg>
