<svg width="10" height="9" viewBox="0 0 10 9" fill="none" xmlns="http://www.w3.org/2000/svg">
<path d="M6.92498 0.0115614C6.78266 0.0321608 6.65907 0.0733585 6.49428 0.157626C6.37256 0.219423 6.17968 0.408559 3.7359 2.84672C2.27712 4.30363 1.09362 5.50024 1.07489 5.53582C1.05616 5.5714 0.807103 6.31109 0.520591 7.17811L0 8.753L0.0318347 8.83914C0.0711599 8.94026 0.155428 9.00018 0.260296 9.00018C0.305239 9.00018 0.93257 8.80168 1.9157 8.47397L3.49807 7.94777L6.14972 5.29425C8.63844 2.80552 8.80511 2.63512 8.87065 2.50778C9.06166 2.13512 9.06166 1.68944 8.86877 1.31678C8.80885 1.19881 8.73769 1.12016 8.32197 0.702561C7.88377 0.266239 7.82946 0.21755 7.69276 0.148263C7.45119 0.0227976 7.17779 -0.0240183 6.92498 0.0115614ZM7.41187 0.582713C7.50363 0.625784 7.59913 0.708179 7.94182 1.049C8.30699 1.41042 8.36878 1.4797 8.42496 1.59393C8.53357 1.81303 8.52796 2.08082 8.40998 2.27557C8.36691 2.34673 8.06167 2.6707 8.03733 2.6707C8.02796 2.6707 7.6422 2.29055 7.17592 1.82427L6.32949 0.977839L6.50177 0.813046C6.75083 0.57335 6.88191 0.513426 7.14034 0.522789C7.26768 0.528407 7.32198 0.539643 7.41187 0.582713ZM6.81824 2.20816L7.66467 3.05458L5.52051 5.19875L3.37635 7.34291L2.5243 6.49086L1.67226 5.63881L3.8108 3.50027C4.98869 2.32239 5.95496 1.35985 5.96058 1.35985C5.9662 1.35985 6.35196 1.74187 6.81824 2.20816ZM1.79023 7.97211C1.1835 8.17435 0.687255 8.33727 0.685382 8.3354C0.681637 8.3354 0.846429 7.83728 1.0468 7.23242L1.41384 6.13131L2.15165 6.86726L2.88947 7.60507L1.79023 7.97211Z" fill="#0570E0"/>
</svg>
