<svg width="15" height="9" viewBox="0 0 15 9" fill="none" xmlns="http://www.w3.org/2000/svg">
<path d="M13.6474 0.0451889C13.5912 0.0748167 12.1068 1.75174 10.2166 3.92049C8.3826 6.02406 6.87159 7.74543 6.85677 7.75135C6.84492 7.75432 6.11016 6.95437 5.22725 5.97369C4.11621 4.74118 3.58291 4.1664 3.49699 4.119C3.17998 3.94123 2.79482 4.17233 2.79482 4.53971C2.79482 4.64044 2.81556 4.7234 2.85407 4.78858C2.88666 4.84191 3.33404 5.35151 3.8466 5.92036L4.77691 6.9514L4.41842 7.36323L4.05992 7.77802L2.68223 6.24923C0.815687 4.17825 0.780134 4.13974 0.670512 4.09529C0.460155 4.00641 0.181655 4.09233 0.0661067 4.28195C-0.0168509 4.41527 -0.0227764 4.66711 0.0542556 4.78562C0.166841 4.95746 3.76957 8.93053 3.84364 8.96609C3.95919 9.01645 4.18732 9.01053 4.29694 8.94831C4.35027 8.92165 4.59914 8.65796 4.85394 8.36465C5.10874 8.07133 5.34576 7.80172 5.38428 7.7632L5.44946 7.69506L5.99461 8.30243C6.30274 8.64611 6.58124 8.93053 6.63457 8.9572C6.74715 9.01053 6.92492 9.01349 7.05528 8.96905C7.12639 8.94535 8.03596 7.92023 10.7084 4.85969C12.6638 2.61391 14.2874 0.738477 14.3141 0.691072C14.4178 0.492567 14.3496 0.211104 14.1659 0.0748167C14.0504 -0.0111036 13.7748 -0.0259171 13.6474 0.0451889Z" fill="#0570E0"/>
<path d="M10.4802 0.465905C10.3884 0.522198 6.33235 5.14412 6.22866 5.313C6.19014 5.37225 6.17236 5.45817 6.17236 5.56779C6.17236 5.76334 6.2494 5.89962 6.40938 5.98258C6.5279 6.04776 6.75307 6.05665 6.86861 6.00332C6.95157 5.96481 11.0698 1.26585 11.1587 1.11179C11.2683 0.91032 11.1972 0.614043 11.0046 0.480719C10.8684 0.388873 10.6195 0.382947 10.4802 0.465905Z" fill="#0570E0"/>
</svg>
