<svg width="7" height="12" viewBox="0 0 7 12" fill="none" xmlns="http://www.w3.org/2000/svg">
<path d="M0.878954 0.0570211C1.04533 0.136694 6.48883 5.58254 6.55913 5.74188C6.62709 5.8942 6.62474 6.11681 6.5521 6.26913C6.47243 6.4355 1.02658 11.879 0.867237 11.9493C0.651653 12.0477 0.349367 11.9985 0.178305 11.8392C0.00724363 11.6798 -0.0513391 11.3541 0.0494232 11.1315C0.0845728 11.0495 0.651653 10.4707 2.60831 8.51402L5.12034 5.99965L2.60831 3.48762C0.653996 1.53096 0.0845728 0.949821 0.0494232 0.867805C-0.0513391 0.645191 0.00724363 0.319471 0.178305 0.160127C0.354053 -0.00390434 0.65634 -0.0484276 0.878954 0.0570211Z" fill="#263238"/>
</svg>
