<svg width="31" height="31" viewBox="0 0 31 31" fill="none" xmlns="http://www.w3.org/2000/svg">
<path fill-rule="evenodd" clip-rule="evenodd" d="M22.2177 0C27.4706 0 31 3.6859 31 9.1698V21.8302C31 27.3141 27.4706 31 22.2146 31H8.7792C3.5278 31 0 27.3141 0 21.8302V9.1698C0 3.6859 3.5278 0 8.7792 0H22.2177ZM22.2177 2.325H8.7792C4.85925 2.325 2.325 5.01115 2.325 9.1698V21.8302C2.325 25.9888 4.85925 28.675 8.7792 28.675H22.2146C26.1392 28.675 28.675 25.9888 28.675 21.8302V9.1698C28.675 5.01115 26.1392 2.325 22.2177 2.325ZM10.597 11.4675C12.4187 11.4688 13.9584 12.679 14.4588 14.3358L23.265 14.3367C23.9067 14.3367 24.4275 14.8575 24.4275 15.4992V18.3714C24.4275 19.0131 23.9067 19.5339 23.265 19.5339C22.6233 19.5339 22.1025 19.0131 22.1025 18.3714V16.6617L20.043 16.6609L20.0438 18.3714C20.0438 19.0131 19.523 19.5339 18.8813 19.5339C18.2396 19.5339 17.7188 19.0131 17.7188 18.3714L17.7181 16.6609L14.4595 16.6624C13.9594 18.3212 12.4173 19.5337 10.597 19.5337C8.37279 19.5337 6.56394 17.7233 6.56394 15.5006C6.56394 13.2764 8.37279 11.4675 10.597 11.4675ZM10.6001 13.7925C9.65464 13.7925 8.88894 14.5582 8.88894 15.5006C8.88894 16.443 9.65464 17.2087 10.597 17.2087C11.5379 17.2087 12.3051 16.443 12.3051 15.5006C12.3051 14.5598 11.5394 13.7941 10.6001 13.7925Z" fill="#0575E6"/>
</svg>
