<svg width="34" height="31" viewBox="0 0 34 31" fill="none" xmlns="http://www.w3.org/2000/svg">
<path fill-rule="evenodd" clip-rule="evenodd" d="M24.7631 0C30.0291 0 34 4.29665 34 9.99442V20.8554C34 23.7715 32.9689 26.4061 31.095 28.2753C29.414 29.95 27.2332 30.8372 24.7884 30.8372H9.20688C6.76679 30.8372 4.58763 29.9516 2.90502 28.2753C1.03107 26.4061 0 23.7715 0 20.8554V9.99442C0 4.29665 3.97088 0 9.23693 0H24.7631ZM24.7631 2.37209H9.23693C5.25972 2.37209 2.37209 5.57758 2.37209 9.99442V20.8554C2.37209 23.1374 3.15647 25.1758 4.57972 26.5943C5.80688 27.8199 7.40884 28.4651 9.21163 28.4651H24.7631C24.7662 28.462 24.7789 28.4651 24.7884 28.4651C26.5927 28.4651 28.1931 27.8199 29.4203 26.5943C30.8451 25.1758 31.6279 23.1374 31.6279 20.8554V9.99442C31.6279 5.57758 28.7403 2.37209 24.7631 2.37209ZM27.2553 9.69206C27.6681 10.1997 27.5906 10.9461 27.083 11.3604L20.0553 17.0724C19.1665 17.7777 18.1038 18.1304 17.0427 18.1304C15.9847 18.1304 14.93 17.7809 14.0475 17.0819L6.95498 11.3636C6.44419 10.9524 6.36512 10.2044 6.7747 9.69522C7.18744 9.18759 7.93386 9.10694 8.44307 9.51652L15.5293 15.2285C16.4196 15.9338 17.6737 15.9338 18.5703 15.2222L25.5854 9.51968C26.0946 9.10378 26.841 9.18285 27.2553 9.69206Z" fill="#0575E6"/>
</svg>
