<svg width="24" height="24" viewBox="0 0 24 24" fill="none" xmlns="http://www.w3.org/2000/svg">
<path d="M11.248 8.00818C10.7449 8.06014 10.0449 8.21326 9.59375 8.36639C7.92305 8.93787 6.37539 10.1519 5.30352 11.7351C5.02734 12.1426 5 12.1972 5 12.364C5 12.5308 5.02734 12.5855 5.30352 12.9929C6.44375 14.6746 8.12539 15.9433 9.88906 16.4492C10.693 16.6816 11.2453 16.75 12.1641 16.7308C12.8887 16.7172 13.173 16.6844 13.7637 16.5422C15.6859 16.0828 17.4742 14.7949 18.6965 12.9929C18.9727 12.5855 19 12.5308 19 12.364C19 12.1972 18.9727 12.1426 18.6965 11.7351C17.4988 9.96873 15.7352 8.68357 13.8594 8.20779C13.2141 8.04373 12.9297 8.01092 12.1094 8.00271C11.6965 7.99725 11.3082 7.99998 11.248 8.00818ZM12.7109 8.92146C14.0617 9.07186 15.3551 9.65701 16.4926 10.6332C16.9602 11.0379 17.559 11.6969 17.9062 12.1918C17.9786 12.2953 17.9789 12.433 17.9071 12.5369L17.898 12.55C17.5508 13.0586 16.7879 13.8707 16.2656 14.289C14.9695 15.3226 13.5531 15.8394 11.9945 15.8394C10.1215 15.8394 8.4125 15.0683 6.95508 13.5644C6.62695 13.2254 6.3207 12.859 6.09375 12.5363L6.07515 12.5095C6.01537 12.4233 6.01407 12.3094 6.07187 12.2219C6.28789 11.8965 6.64609 11.4781 7.07539 11.0488C7.54844 10.5785 7.85195 10.3269 8.33047 10.0097C9.65937 9.12928 11.1824 8.75193 12.7109 8.92146Z" fill="#0570E0"/>
<path d="M11.4531 9.78015C10.477 9.9989 9.73047 10.7016 9.45156 11.6696C9.39687 11.8583 9.38867 11.9458 9.38867 12.3641C9.38867 12.7825 9.39687 12.87 9.45156 13.0587C9.7168 13.9719 10.3922 14.6473 11.3055 14.9126C11.4941 14.9673 11.5816 14.9755 12 14.9755C12.4184 14.9755 12.5059 14.9673 12.6945 14.9126C13.6078 14.6473 14.2832 13.9719 14.5484 13.0587C14.6031 12.87 14.6113 12.7825 14.6113 12.3641C14.6113 11.9458 14.6031 11.8583 14.5484 11.6696C14.2859 10.7618 13.6105 10.0837 12.7082 9.81843C12.443 9.74187 11.7266 9.71999 11.4531 9.78015ZM12.4211 10.6852C12.9434 10.811 13.4137 11.2321 13.6188 11.7489C13.6926 11.9376 13.7062 12.0114 13.7172 12.2821C13.7309 12.6403 13.6926 12.8399 13.5531 13.1216C13.3016 13.6384 12.7629 14.0212 12.2051 14.0813C11.4039 14.1661 10.682 13.7286 10.3758 12.9712C10.2937 12.7688 10.291 12.7442 10.291 12.3641C10.291 11.9841 10.2937 11.9594 10.3758 11.7571C10.7148 10.9231 11.5652 10.4774 12.4211 10.6852Z" fill="#0570E0"/>
<circle cx="12" cy="12" r="12" fill="#0570E0" fill-opacity="0.05"/>
</svg>
