<svg width="31" height="31" viewBox="0 0 31 31" fill="none" xmlns="http://www.w3.org/2000/svg">
<path fill-rule="evenodd" clip-rule="evenodd" d="M1 15.5001C1 7.49193 7.49187 1.00006 15.5 1.00006C23.5081 1.00006 30 7.49193 30 15.5001C30 23.5082 23.5081 30.0001 15.5 30.0001C7.49187 30.0001 1 23.5082 1 15.5001Z" fill="#F8F9FB" stroke="black" stroke-opacity="0.1" stroke-width="0.99434"/>
<path d="M17.7294 10.0571C17.5631 10.1368 12.1196 15.5826 12.0493 15.7419C11.9813 15.8943 11.9837 16.1169 12.0563 16.2692C12.136 16.4356 17.5818 21.8791 17.7412 21.9494C17.9567 22.0478 18.259 21.9986 18.4301 21.8392C18.6012 21.6799 18.6597 21.3542 18.559 21.1316C18.5238 21.0495 17.9567 20.4707 16.0001 18.5141L13.4881 15.9997L16.0001 13.4877C17.9544 11.531 18.5238 10.9499 18.559 10.8679C18.6597 10.6453 18.6012 10.3195 18.4301 10.1602C18.2543 9.99616 17.9521 9.95163 17.7294 10.0571Z" fill="#0570E0"/>
</svg>
